<svg width="32" height="32" viewBox="0 0 32 32" fill="none" xmlns="http://www.w3.org/2000/svg">
<path d="M4.66666 10H27.3333C28.4381 10 29.3333 9.10482 29.3333 8C29.3333 6.89518 28.4381 6 27.3333 6H4.66666C3.56184 6 2.66666 6.89518 2.66666 8C2.66666 9.10482 3.56184 10 4.66666 10Z" fill="black"/>
<path d="M27.3333 14H4.66666C3.56184 14 2.66666 14.8952 2.66666 16C2.66666 17.1048 3.56184 18 4.66666 18H27.3333C28.4381 18 29.3333 17.1048 29.3333 16C29.3333 14.8952 28.4381 14 27.3333 14Z" fill="black"/>
<path d="M27.3333 22H4.66666C3.56184 22 2.66666 22.8952 2.66666 24C2.66666 25.1048 3.56184 26 4.66666 26H27.3333C28.4381 26 29.3333 25.1048 29.3333 24C29.3333 22.8952 28.4381 22 27.3333 22Z" fill="black"/>
</svg>
