<svg width="32" height="32" viewBox="0 0 32 32" fill="none" xmlns="http://www.w3.org/2000/svg">
<path d="M7.41423 4.58578C6.63316 3.80474 5.36684 3.80474 4.58578 4.58578C3.80474 5.36684 3.80474 6.63316 4.58578 7.41423L13.1716 16L4.58578 24.5858C3.80474 25.3668 3.80474 26.6332 4.58578 27.4142C5.36684 28.1952 6.63316 28.1952 7.41423 27.4142L16 18.8284L24.5858 27.4142C25.3668 28.1952 26.6332 28.1952 27.4142 27.4142C28.1952 26.6332 28.1952 25.3668 27.4142 24.5858L18.8284 16L27.4142 7.41423C28.1952 6.63316 28.1952 5.36684 27.4142 4.58578C26.6332 3.80474 25.3668 3.80474 24.5858 4.58578L16 13.1716L7.41423 4.58578Z" fill="black"/>
</svg>
