<svg width="32" height="32" viewBox="0 0 32 32" fill="none" xmlns="http://www.w3.org/2000/svg">
<g clip-path="url(#clip0_97_326)">
<path d="M21.7809 16.6005C21.6642 16.497 21.5031 16.4582 21.352 16.4973C21.2006 16.5361 21.0783 16.6479 21.0258 16.7949C20.9943 16.8833 20.9899 16.979 21.0131 17.0698C21.2153 17.8593 21.3176 18.7104 21.3176 19.5993C21.3176 21.2973 20.8168 22.915 19.8293 24.4072C19.7309 24.5561 19.725 24.7477 19.8144 24.9023C19.8989 25.048 20.0544 25.1369 20.2211 25.1369C20.2311 25.1369 20.2412 25.1367 20.2512 25.1359C22.4833 24.9938 23.923 23.7097 23.9831 23.655C24.0771 23.5698 24.1327 23.4501 24.1371 23.3237C24.2958 18.8845 21.8837 16.6916 21.7809 16.6005Z" fill="#FF7C66"/>
<path d="M18.4824 27.3557C19.4053 26.5395 20.177 25.6367 20.7807 24.6655C21.761 23.0888 22.258 21.3843 22.258 19.5993C22.258 15.9287 20.6523 13.6457 19.3054 12.3769C17.845 11.0012 16.3899 10.4998 16.3286 10.479C16.2309 10.4463 16.1252 10.4463 16.0278 10.479C15.9665 10.4998 14.5112 11.0012 13.051 12.3769C11.7039 13.6457 10.0981 15.9287 10.0981 19.5993C10.0981 21.3843 10.5952 23.0888 11.5757 24.6655C12.1794 25.6369 12.9512 26.5398 13.8743 27.3557C12.9001 28.1574 11.8542 29.4572 11.5405 31.457C11.51 31.6506 11.6033 31.8427 11.7742 31.9392C11.9451 32.0356 12.1582 32.0153 12.3083 31.8889C12.3267 31.8732 14.1829 30.3293 16.1782 30.3293C18.1736 30.3293 20.0298 31.8732 20.0483 31.8889C20.1352 31.9624 20.2429 32 20.3518 32C20.4306 32 20.51 31.9802 20.582 31.9397C20.7532 31.8435 20.8467 31.6508 20.8161 31.457C20.5024 29.457 19.4563 28.1572 18.4824 27.3557Z" fill="#FFB541"/>
<path d="M21.7809 16.6005C21.6642 16.497 21.5031 16.4582 21.352 16.4973C21.2006 16.5361 21.0783 16.6479 21.0258 16.7949C20.9943 16.8833 20.9899 16.979 21.0131 17.0698C21.2153 17.8593 21.3176 18.7104 21.3176 19.5993C21.3176 21.2973 20.8168 22.915 19.8293 24.4072C19.7309 24.5561 19.725 24.7477 19.8144 24.9023C19.8989 25.048 20.0544 25.1369 20.2211 25.1369C20.2311 25.1369 20.2412 25.1367 20.2512 25.1359C20.8215 25.0998 21.3395 24.9887 21.7966 24.8427C21.8347 24.7839 21.8723 24.7248 21.9091 24.6655C22.8896 23.0888 23.3864 21.3842 23.3864 19.5993C23.3864 19.3891 23.3805 19.1838 23.3703 18.9826C22.7045 17.4387 21.8415 16.6543 21.7809 16.6005Z" fill="#FF6C55"/>
<path d="M11.2468 21.4631C11.1086 20.8562 11.0385 20.2292 11.0385 19.5994C11.0385 18.9712 11.0905 18.3564 11.1926 17.7722C11.2041 17.7075 11.2011 17.6389 11.1853 17.5749C11.1496 17.4324 11.0493 17.3147 10.9143 17.2568C10.7793 17.199 10.625 17.2075 10.497 17.28C10.3986 17.3359 8.08664 18.6846 7.87595 22.0254C7.86667 22.1711 7.92575 22.313 8.03562 22.4089C8.12229 22.4846 8.23239 22.5251 8.34519 22.5251C8.3757 22.5251 8.40671 22.5222 8.43723 22.5161L10.8806 22.0285C11.0051 22.0036 11.1142 21.9297 11.1831 21.8232C11.2519 21.7168 11.2751 21.5869 11.2468 21.4631Z" fill="#FF7C66"/>
<path d="M11.1831 21.8232C11.2522 21.7168 11.2751 21.5869 11.2471 21.4631C11.1089 20.8562 11.0388 20.2292 11.0388 19.5994C11.0388 18.9712 11.0906 18.3564 11.1929 17.7722C11.2041 17.7075 11.2012 17.6389 11.1853 17.5749C11.1497 17.4324 11.0493 17.3147 10.9143 17.2568C10.7793 17.199 10.625 17.2075 10.4971 17.28C10.4419 17.3113 9.6897 17.75 9.00269 18.7192C8.98193 19.0034 8.96997 19.2961 8.96997 19.5994C8.96997 20.5334 9.10742 21.4453 9.37768 22.3284L10.8806 22.0285C11.0049 22.0039 11.114 21.9297 11.1831 21.8232Z" fill="#FF6C55"/>
<path d="M16.1472 3.3767C15.8875 3.3767 15.677 3.16625 15.677 2.90673V0.470214C15.677 0.210449 15.8875 0 16.1472 0C16.4067 0 16.6172 0.210449 16.6172 0.470214V2.90673C16.6172 3.16625 16.4067 3.3767 16.1472 3.3767Z" fill="#7B7179"/>
<path d="M18.4824 27.3557C19.4053 26.5395 20.177 25.6367 20.7807 24.6655C21.761 23.0888 22.258 21.3843 22.258 19.5993C22.258 15.9287 20.6523 13.6457 19.3054 12.3769C17.845 11.0012 16.3899 10.4998 16.3286 10.479C16.2309 10.4463 16.1252 10.4463 16.0278 10.479C15.9665 10.4998 14.5112 11.0012 13.051 12.3769C11.7039 13.6457 10.0981 15.9287 10.0981 19.5993C10.0981 21.3843 10.5952 23.0888 11.5757 24.6655C12.1794 25.6369 12.9512 26.5398 13.8743 27.3557C12.9001 28.1574 11.8542 29.4572 11.5405 31.457C11.51 31.6506 11.6033 31.8427 11.7742 31.9392C11.9451 32.0356 12.1582 32.0153 12.3083 31.8889C12.3267 31.8732 14.1829 30.3293 16.1782 30.3293C18.1736 30.3293 20.0298 31.8732 20.0483 31.8889C20.1352 31.9624 20.2429 32 20.3518 32C20.4306 32 20.51 31.9802 20.582 31.9397C20.7532 31.8435 20.8467 31.6508 20.8161 31.457C20.5024 29.457 19.4563 28.1572 18.4824 27.3557Z" fill="#FFB541"/>
<path d="M18.4824 27.3557C19.4053 26.5395 20.177 25.6367 20.7808 24.6655C21.761 23.0888 22.258 21.3843 22.258 19.5993C22.258 15.9287 20.6523 13.6457 19.3054 12.3769C17.845 11.0012 16.3899 10.4998 16.3286 10.479C16.231 10.4463 16.1252 10.4463 16.0278 10.479C15.9968 10.4895 15.6113 10.6223 15.0498 10.9277C15.602 11.228 16.3245 11.6948 17.0486 12.3769C18.3955 13.6457 20.0012 15.9287 20.0012 19.5993C20.0012 21.3843 19.5041 23.0886 18.5239 24.6655C17.9202 25.6367 17.1484 26.5395 16.2256 27.3557C17.1057 28.08 18.0444 29.2111 18.4487 30.8982C19.3884 31.34 20.0376 31.8798 20.0483 31.8891C20.1352 31.9624 20.2432 32 20.3518 32C20.4309 32 20.5102 31.9802 20.5823 31.9397C20.7534 31.8435 20.8467 31.6511 20.8162 31.457C20.5024 29.457 19.4563 28.1572 18.4824 27.3557Z" fill="#FFA812"/>
<path d="M16.1472 11.3948C15.8875 11.3948 15.677 11.1843 15.677 10.9246V8.32446C15.677 8.0647 15.8875 7.85425 16.1472 7.85425C16.4067 7.85425 16.6172 8.0647 16.6172 8.32446V10.9246C16.6172 11.1843 16.4067 11.3948 16.1472 11.3948Z" fill="#7B7179"/>
<path d="M21.1838 14.8716C19.498 11.5815 16.4572 10.5227 16.3286 10.4792C16.2309 10.4463 16.1252 10.4463 16.0276 10.4792C15.8989 10.5227 12.8581 11.5815 11.1726 14.8716C11.0591 15.0933 11.1382 15.3652 11.353 15.4914C12.738 16.3049 14.4065 16.7349 16.1782 16.7349C17.9499 16.7349 19.6184 16.3049 21.0034 15.4914C21.2182 15.3652 21.2973 15.0933 21.1838 14.8716Z" fill="#FFCF86"/>
<path d="M21.1838 14.8716C19.498 11.5815 16.4573 10.5227 16.3286 10.4792C16.231 10.4463 16.1252 10.4463 16.0276 10.4792C15.9836 10.4939 15.6006 10.6272 15.0481 10.9268C15.6006 11.227 16.3237 11.6943 17.0486 12.3769C17.9165 13.1946 18.8911 14.4341 19.4751 16.1933C20.0132 16.0058 20.5256 15.772 21.0034 15.4912C21.2182 15.3652 21.2974 15.0933 21.1838 14.8716Z" fill="#FFC265"/>
<path d="M16.1472 2.43652C14.572 2.43652 13.4287 3.57983 13.4287 5.15478C13.4287 6.87646 14.5452 8.79467 16.1472 8.79467C17.749 8.79467 18.8655 6.87646 18.8655 5.15478C18.8657 3.57983 17.7222 2.43652 16.1472 2.43652Z" fill="#E6E2E6"/>
<path d="M16.1472 2.43652C15.7375 2.43652 15.3574 2.5144 15.0188 2.65649C15.9824 3.06103 16.6086 3.9895 16.6086 5.15502C16.6086 6.43383 15.9922 7.82055 15.0188 8.44945C15.3557 8.66722 15.7351 8.79467 16.1472 8.79467C17.7493 8.79467 18.8655 6.87646 18.8655 5.15502C18.8657 3.57983 17.7222 2.43652 16.1472 2.43652Z" fill="#D8D1D7"/>
<path d="M16.1472 2.90674C14.9055 2.90674 13.8989 3.76196 13.8989 5.15478C13.8989 5.30761 13.9082 5.46044 13.926 5.61157C14.4597 5.80102 15.2571 5.96826 16.1484 5.96826C17.0383 5.96826 17.8347 5.80151 18.3682 5.61254C18.386 5.46093 18.3955 5.3081 18.3955 5.15478C18.3955 3.76196 17.3889 2.90674 16.1472 2.90674Z" fill="#FF6C55"/>
<path d="M16.1472 2.43652C14.572 2.43652 13.4287 3.57983 13.4287 5.15478C13.4287 5.32348 13.439 5.4956 13.4592 5.66674C13.4802 5.84448 13.6001 5.99487 13.7688 6.05468C14.4563 6.29858 15.3235 6.43847 16.1484 6.43847C16.9717 6.43847 17.8379 6.29906 18.5249 6.05566C18.6936 5.99609 18.8137 5.8457 18.835 5.66772C18.8552 5.49633 18.8655 5.32372 18.8655 5.15478C18.8657 3.57983 17.7222 2.43652 16.1472 2.43652Z" fill="#FF6C55"/>
<path d="M16.9451 13.7983C16.9451 14.2185 16.6045 14.5593 16.1841 14.5593C15.7639 14.5593 15.4233 14.2185 15.4233 13.7983C15.4233 13.3782 15.7639 13.0374 16.1841 13.0374C16.6045 13.0374 16.9451 13.3782 16.9451 13.7983Z" fill="#7B7179"/>
<path d="M16.1472 2.43652C15.7375 2.43652 15.3574 2.5144 15.0188 2.65649C15.9824 3.06103 16.6086 3.9895 16.6086 5.15502C16.6086 5.57983 16.5405 6.01659 16.4141 6.43359C17.1553 6.40722 17.9116 6.27294 18.5249 6.0559C18.6936 5.99609 18.814 5.8457 18.835 5.66796C18.8552 5.49633 18.8655 5.32372 18.8655 5.15502C18.8657 3.57983 17.7222 2.43652 16.1472 2.43652Z" fill="#FF544D"/>
</g>
<defs>
<clipPath id="clip0_97_326">
<rect width="32" height="32" fill="white"/>
</clipPath>
</defs>
</svg>
