<svg width="32" height="32" viewBox="0 0 32 32" fill="none" xmlns="http://www.w3.org/2000/svg">
<path d="M28.5976 6.89342L26.0865 9.40417L22.5994 5.91761L25.1104 3.40686C25.6512 2.86617 26.528 2.86617 27.0688 3.40686L28.5976 4.93536C29.1383 5.47605 29.1383 6.35273 28.5976 6.89342V6.89342Z" fill="#EAB14D"/>
<path d="M3.80514 31.4843C9.67187 24.1361 16.3826 17.4932 23.7924 11.7003L20.3029 8.21136C14.5092 15.6201 7.86521 22.3297 0.515869 28.1955C-0.0518456 28.6486 -0.168864 29.4709 0.266517 30.0522C0.74653 30.6932 1.30706 31.2537 1.94809 31.7336C2.52956 32.1689 3.35194 32.0519 3.80514 31.4843V31.4843Z" fill="#EAB14D"/>
<path opacity="0.08" d="M3.80696 31.4833C3.35282 32.0517 2.53026 32.1692 1.9491 31.7342C1.46003 31.3659 1.01539 30.9531 0.621582 30.4895C0.761354 30.6165 0.907439 30.7308 1.05984 30.8451C1.64105 31.2801 2.46362 31.1627 2.91776 30.5942C8.78362 23.2495 15.4942 16.6035 22.9036 10.8083L23.7929 11.6975C16.3834 17.4925 9.66963 24.1355 3.80696 31.4833V31.4833Z" fill="black"/>
<path d="M30.7214 24.2358C30.4951 24.6118 29.9162 24.4533 29.8958 24.0148C29.6787 19.3548 26.5663 14.4737 22.0476 9.95572C17.529 5.43778 12.6471 2.32597 7.98637 2.1089C7.54792 2.08847 7.38927 1.50965 7.76533 1.28334C12.4503 -1.53591 20.0947 0.391654 25.854 6.15003C31.6133 11.9084 33.5412 19.5516 30.7214 24.2358Z" fill="#ECF4FF"/>
<path d="M28.4376 8.83346L24.4404 12.83C24.0896 13.1808 23.5208 13.1808 23.1701 12.83L19.1729 8.83346C18.8221 8.48271 18.8221 7.91402 19.1729 7.56334L23.1701 3.56677C23.5209 3.21602 24.0897 3.21602 24.4404 3.56677L28.4376 7.56334C28.7884 7.91402 28.7884 8.48271 28.4376 8.83346Z" fill="#DDEAFB"/>
<path opacity="0.4" d="M4.61938 26.8282L3.74638 27.7012C3.57957 27.868 3.30913 27.868 3.14232 27.7012C2.97551 27.5344 2.97551 27.264 3.14232 27.0972L4.01532 26.2242C4.18213 26.0574 4.45257 26.0574 4.61938 26.2242C4.7862 26.391 4.7862 26.6614 4.61938 26.8282Z" fill="white"/>
<path d="M23.9896 6.5851C23.7758 6.79885 23.4316 6.7966 23.218 6.58285C23.0042 6.3691 23.002 6.02492 23.2157 5.81123C23.4295 5.59748 23.7759 5.59754 23.9896 5.81123C24.2033 6.02492 24.2033 6.37135 23.9896 6.5851Z" fill="#E5E3E5"/>
<path d="M26.1927 8.78786C25.979 9.00161 25.6348 8.99936 25.4211 8.78561C25.2073 8.57186 25.2051 8.22768 25.4188 8.01399C25.6326 7.80024 25.979 7.8003 26.1927 8.01399C26.4064 8.22774 26.4064 8.57417 26.1927 8.78786Z" fill="#E5E3E5"/>
<path d="M22.1893 8.38503C21.9755 8.59878 21.6314 8.59653 21.4177 8.38278C21.2039 8.16903 21.2017 7.82484 21.4154 7.61116C21.6292 7.39741 21.9756 7.39747 22.1893 7.61116C22.403 7.82484 22.403 8.17128 22.1893 8.38503Z" fill="#E5E3E5"/>
<path d="M24.3924 10.5879C24.1787 10.8016 23.8345 10.7994 23.6208 10.5856C23.407 10.3719 23.4048 10.0277 23.6185 9.81398C23.8323 9.60023 24.1787 9.60029 24.3924 9.81398C24.6061 10.0277 24.6061 10.3741 24.3924 10.5879Z" fill="#E5E3E5"/>
</svg>
