<svg width="32" height="32" viewBox="0 0 32 32" fill="none" xmlns="http://www.w3.org/2000/svg">
<g clip-path="url(#clip0_97_388)">
<path d="M30.3294 15.0332C30.3294 12.7959 28.9687 10.8763 27.0299 10.0568C27.3722 9.39492 27.5669 8.64417 27.5669 7.84755C27.5669 5.18749 25.4105 3.03112 22.7504 3.03112C21.9926 3.03112 21.2759 3.20668 20.638 3.51849C20.0712 1.48918 18.2101 0 15.9999 0C13.7898 0 11.9287 1.48918 11.3619 3.51849C10.724 3.20662 10.0073 3.03112 9.24946 3.03112C6.5894 3.03112 4.43303 5.18749 4.43303 7.84755C4.43303 8.64417 4.62759 9.39492 4.97003 10.0568C3.03115 10.8764 1.67053 12.7959 1.67053 15.0332C1.67053 17.9328 3.95653 20.2955 6.82421 20.4248C7.22402 21.8729 8.76796 22.9525 10.6131 22.9525C11.6588 22.9525 12.6074 22.6051 13.3065 22.0411C14.0056 22.6051 14.9543 22.9525 15.9999 22.9525C17.0456 22.9525 17.9943 22.6051 18.6934 22.0411C19.3925 22.6051 20.3411 22.9525 21.3868 22.9525C23.2319 22.9525 24.7759 21.8729 25.1757 20.4247C28.0434 20.2954 30.3294 17.9328 30.3294 15.0332Z" fill="#129B12"/>
<path d="M15.7111 0.00956248C15.6518 0.013125 15.5927 0.017375 15.534 0.023125C15.516 0.024875 15.4981 0.0268749 15.4803 0.0288124C15.4172 0.0356249 15.3545 0.0434999 15.2921 0.0527499C15.2805 0.0544374 15.2688 0.0561249 15.2571 0.0579374C15.183 0.0694999 15.1093 0.0823748 15.0363 0.0972498C15.0361 0.0972498 15.036 0.0973123 15.0359 0.0973123C16.3003 0.354437 17.4841 1.23506 18.2341 2.34506C18.7652 3.13112 19.6726 3.58424 20.6191 3.51987C20.6254 3.51943 20.6317 3.51899 20.638 3.51856C20.0713 1.48918 18.2101 0 16 0C15.9225 0 15.8456 0.00225 15.769 0.00587499C15.7496 0.00681249 15.7304 0.00843748 15.7111 0.00956248Z" fill="#097C09"/>
<path d="M27.0299 10.0568C27.3723 9.39493 27.5669 8.64418 27.5669 7.84756C27.5669 5.1875 25.4105 3.03113 22.7505 3.03113C22.4203 3.03113 22.0981 3.0645 21.7867 3.12788C23.9846 3.57456 25.6388 5.51781 25.6388 7.84756C25.6388 8.64418 25.4442 9.39493 25.1018 10.0568C27.0407 10.8764 28.4013 12.7959 28.4013 15.0332C28.4013 17.9328 26.1153 20.2954 23.2477 20.4247C22.92 21.6117 21.8235 22.5505 20.4227 22.8507C20.731 22.9169 21.054 22.9524 21.3869 22.9524C23.232 22.9524 24.776 21.8728 25.1758 20.4247C28.0435 20.2953 30.3294 17.9327 30.3294 15.0332C30.3294 12.7959 28.9689 10.8763 27.0299 10.0568Z" fill="#097C09"/>
<path d="M12.5512 21.2434C12.1169 21.9801 10.3167 22.8039 9.64917 22.8507C9.72261 22.8665 9.79704 22.8802 9.87211 22.8925C9.87811 22.8935 9.88411 22.8946 9.89017 22.8955C9.96623 22.9076 10.043 22.9179 10.1207 22.9262C10.1227 22.9264 10.1247 22.9266 10.1267 22.9268C10.1965 22.9342 10.267 22.9395 10.338 22.9437C10.3552 22.9447 10.3725 22.9457 10.3899 22.9466C10.4639 22.9501 10.5382 22.9525 10.6132 22.9525C11.5669 22.9525 12.4392 22.6629 13.1158 22.1842L13.2344 22.098L12.6303 21.1068L12.5512 21.2434Z" fill="#009000"/>
<path d="M18.4082 22.4733L20.4717 19.2171C20.635 18.9595 20.5855 18.6214 20.3555 18.4212C20.1098 18.2075 19.7404 18.2215 19.5115 18.4532L17.9918 19.9917C17.7902 20.1958 17.4449 20.0261 17.4833 19.7419L17.9302 16.4309C17.9779 16.0772 17.7164 15.7568 17.3602 15.7327L16.9416 15.7044C16.6269 15.6832 16.3469 15.9025 16.2922 16.2131L15.4946 20.7452C15.4502 20.9972 15.1301 21.0804 14.9687 20.8819L12.4704 17.8094C12.2976 17.5968 12.0052 17.5237 11.7526 17.6299L11.3152 17.8137C10.9689 17.9592 10.8319 18.3779 11.0251 18.7L13.5924 22.9792C13.9641 23.5988 14.1174 24.3258 14.0245 25.0425C13.6918 27.6086 13.2785 30.0286 11.5872 32H20.4124C18.6019 29.8896 18.1553 27.2652 17.9157 24.4978C17.8544 23.7872 18.0264 23.0757 18.4082 22.4733Z" fill="#BF6101"/>
<path d="M20.4718 19.2171C20.635 18.9595 20.5857 18.6213 20.3555 18.4212C20.1098 18.2075 19.7404 18.2215 19.5115 18.4531L18.8329 19.1402L17.9919 19.9916C17.7903 20.1957 17.445 20.026 17.4834 19.7418L17.9302 16.4308C17.9768 16.086 17.7292 15.7737 17.3869 15.7358L16.1303 23.5461C16.1092 23.647 16.0927 23.7488 16.0812 23.8514C16.0572 24.0648 16.054 24.2813 16.0727 24.4977C16.3125 27.2651 16.7591 29.8896 18.5696 31.9999H20.4126C18.6021 29.8896 18.1555 27.2651 17.9159 24.4978C17.8544 23.7871 18.0265 23.0758 18.4082 22.4733L20.4718 19.2171Z" fill="#9A4D01"/>
<path d="M15.0832 3.78125C13.7319 3.78125 12.5687 4.58325 12.0414 5.73687C11.4967 5.35193 10.8323 5.125 10.1145 5.125C8.26781 5.125 6.77075 6.62206 6.77075 8.46874C6.77075 9.07805 6.93456 9.6488 7.21931 10.1407C5.61582 10.3873 4.38782 11.7729 4.38782 13.4454C4.38782 15.2921 5.88488 16.7892 7.73156 16.7892C9.57825 16.7892 18.427 8.97168 18.427 7.12499C18.427 5.27831 16.93 3.78125 15.0832 3.78125Z" fill="#28A528"/>
</g>
<defs>
<clipPath id="clip0_97_388">
<rect width="32" height="32" fill="white"/>
</clipPath>
</defs>
</svg>
