<svg width="32" height="32" viewBox="0 0 32 32" fill="none" xmlns="http://www.w3.org/2000/svg">
<g clip-path="url(#clip0_97_533)">
<path d="M11.3999 31.145C12.0003 30.5888 12.6408 29.2023 13.3366 26.3943C13.3396 26.3832 13.3416 26.3742 13.3426 26.3632C13.3777 26.1463 13.8807 22.6747 12.7422 19.3837C12.6278 19.0534 13.0444 18.8014 13.2803 19.0594L13.6478 20.1628C13.8456 20.3796 14.206 20.2391 14.206 19.9459V17.939C14.206 17.7493 14.3696 17.6007 14.5584 17.6198L16.3805 17.7985C16.5452 17.8145 16.6707 17.9531 16.6707 18.1177V19.5273C16.6707 19.8184 17.0271 19.959 17.2259 19.7471L19.1424 17.4933C19.3181 17.3055 19.6333 17.3909 19.6895 17.6419L19.8462 18.3336C19.8743 18.4581 19.8271 18.5886 19.7237 18.6629C19.0079 19.1749 15.9779 22.4518 17.016 27.852C17.019 27.8681 17.0221 27.8821 17.0281 27.8972C17.0973 28.102 17.3303 29.7314 18.7217 31.0496C18.9065 31.2243 18.8292 31.5325 18.5832 31.5937C18.2278 31.6831 17.7851 31.8025 17.4568 31.919C16.502 32.2563 15.2099 31.4502 14.7762 31.15C14.6819 31.0847 14.5634 31.0757 14.46 31.1239C13.9701 31.3558 12.5424 31.9953 11.9863 31.8367C11.7965 31.7825 11.6379 31.7282 11.5064 31.678C11.2805 31.5957 11.2233 31.3086 11.3999 31.145Z" fill="#9A795F"/>
<path d="M6.62018 17.9812C6.82599 17.5344 6.75973 16.9742 6.45553 16.5877C6.15134 16.2012 5.62326 16.0044 5.14036 16.0978C5.28493 16.2986 5.12129 16.6018 4.89038 16.6891C4.65947 16.7775 4.40045 16.7172 4.16051 16.657C3.73584 16.5506 3.31117 16.4432 2.8855 16.3367C2.62347 16.2705 2.34537 16.1952 2.16466 15.9944C1.87553 15.6711 1.95383 15.1732 2.04921 14.7505C2.08736 14.5838 2.1245 14.4172 2.16265 14.2505C2.28614 13.7074 2.40862 13.1653 2.53211 12.6221C2.63551 12.1683 2.85939 11.6112 3.32422 11.6091C3.22885 11.0449 3.22684 10.303 3.75793 10.0912C3.98281 10.0018 4.23581 10.047 4.47675 10.0279C5.11828 9.97773 5.67446 9.39444 5.69354 8.75091C5.70458 8.39953 5.57507 8.04714 5.6333 7.70078C5.69153 7.35342 6.08608 7.02312 6.37823 7.21989C6.35715 6.90265 6.33406 6.5854 6.31197 6.26815C6.50171 6.21494 6.69146 6.16173 6.88121 6.10852C6.828 5.78927 6.5991 5.53527 6.4224 5.2642C6.24671 4.99314 6.11921 4.63473 6.28285 4.35563C6.4475 4.07754 6.99566 4.12573 6.98963 4.449C7.1593 4.40683 7.32897 4.36366 7.49863 4.3215C7.40527 4.02031 7.3109 3.70608 7.35507 3.39385C7.39924 3.08062 7.62413 2.7694 7.93836 2.73526C8.20642 2.70615 8.45038 2.87481 8.66622 3.03544C8.94733 3.24527 9.22944 3.45509 9.51054 3.66492C9.67921 3.79041 9.86695 3.92193 10.0768 3.90988C10.2866 3.89783 10.4824 3.65387 10.3669 3.47818C9.88301 3.40088 9.6782 2.82863 9.57881 2.34975C9.51958 2.06362 9.47039 1.74336 9.63202 1.50041C9.76856 1.2956 10.0185 1.20525 10.2525 1.12694C11.2825 0.78158 12.3126 0.436222 13.3426 0.0898604C13.5303 0.0266117 13.7392 -0.035633 13.9209 0.0426749C14.1568 0.145077 14.2552 0.446262 14.4891 0.55268C14.7642 0.677169 15.2491 0.598862 15.2441 0.90105C15.3465 0.727367 15.4489 0.553684 15.5523 0.380001C15.6768 0.555692 15.8023 0.730379 15.9268 0.906069C16.0503 0.544648 16.252 0.119979 16.6325 0.0908643C16.9538 0.0657656 17.2078 0.344863 17.503 0.475376C17.7981 0.605889 18.283 0.386025 18.1385 0.0978919C18.5059 -0.132012 18.9888 0.0808248 19.3302 0.346871C19.6715 0.612917 20.0068 0.949239 20.4385 0.982369C20.7537 1.00646 21.07 0.85788 21.3812 0.913097C21.843 0.994417 22.1533 1.49237 22.6191 1.55161C22.9524 1.59377 23.2636 1.398 23.5869 1.30363C23.9102 1.20926 24.3549 1.28355 24.4312 1.61084C24.4653 1.75942 24.4091 1.91805 24.4443 2.06663C24.5165 2.37183 24.896 2.45616 25.1822 2.58367C25.4683 2.71117 25.6982 3.14889 25.4221 3.29647C25.8387 3.21916 26.2905 3.49525 26.412 3.90084C26.5475 4.35463 26.3236 4.93089 26.655 5.27023C26.9059 5.52724 27.3627 5.49812 27.5946 5.77321C27.8326 6.05431 27.7051 6.47396 27.6659 6.8404C27.6258 7.20684 27.8456 7.69777 28.203 7.60942C28.3366 7.57629 28.4661 7.46084 28.5946 7.51003C28.6859 7.54517 28.7281 7.64858 28.7562 7.74195C28.8727 8.13248 28.9128 8.5451 28.8747 8.9517C29.0604 8.91556 29.2371 8.83725 29.3887 8.72481C29.6146 10.1926 29.0022 11.6453 28.7853 13.1141C28.7562 13.3098 28.7432 13.5337 28.8757 13.6803C28.9821 13.7978 29.1508 13.8279 29.2973 13.8911C30.0001 14.1933 30.0694 15.1451 30.0282 15.9091C30.0162 16.1359 29.9921 16.3889 29.8194 16.5365C29.476 16.8307 28.958 16.4442 28.5072 16.4934C27.6167 16.5917 27.689 18.1308 26.8628 18.4751C26.4331 18.6549 25.9532 18.4249 25.4904 18.3737C25.0276 18.3215 24.4232 18.6789 24.5979 19.1106C24.6882 19.3325 24.9472 19.6096 24.7464 19.7401C24.0296 19.3867 23.3138 19.0323 22.597 18.6789C22.5779 18.9972 22.5197 19.3124 22.4253 19.6176C22.0749 19.7913 21.7497 19.3636 21.5308 19.0404C20.9455 18.177 19.8803 17.663 18.8402 17.7413C18.7007 18.0183 19.033 18.2944 19.3211 18.4089C19.6092 18.5233 19.9707 18.705 19.9325 19.0133C19.9034 19.2512 19.6213 19.3857 19.3844 19.3526C19.1474 19.3195 18.9456 19.1709 18.7438 19.0414C17.773 18.4139 16.5834 18.1348 15.4348 18.2633C15.223 18.2874 15.0051 18.3266 14.8254 18.442C14.6437 18.5585 14.5162 18.7422 14.3526 18.8827C14.0634 19.1307 13.6799 19.2321 13.3115 19.3265C12.8587 19.4419 12.4069 19.5574 11.9542 19.6729C11.7092 19.7351 11.4482 19.7973 11.2082 19.719C10.9823 19.6457 10.8137 19.46 10.6179 19.3255C10.0085 18.9099 9.20233 19.0193 8.46443 19.0052C7.72653 18.9912 6.84707 18.701 6.69347 17.9792" fill="#8CC63E"/>
<path d="M16.8082 7.18979C16.3775 6.61352 15.3796 6.62758 15.0754 5.97602C14.968 5.74511 14.978 5.47505 15.0423 5.22808C15.2079 4.59659 15.6968 4.10466 15.98 3.51635C16.2631 2.92803 16.24 2.06464 15.6456 1.79257C15.4499 1.70221 15.227 1.69619 15.0111 1.69519C13.6608 1.68515 12.3095 1.78855 10.9763 2.0044C10.8588 2.02348 10.7333 2.04657 10.645 2.12688C10.4171 2.3347 10.5888 2.70014 10.6891 2.99128C10.8809 3.54345 10.7253 4.19903 10.3076 4.60764C9.89001 5.01624 9.23041 5.15579 8.68326 4.95199C8.50255 5.60958 8.89108 6.39667 8.49854 6.95386C8.34192 7.17573 8.09093 7.30625 7.86404 7.45784C7.08498 7.97588 6.52678 8.81618 6.35109 9.7358L6.17139 9.99783C6.67336 10.3633 7.17433 10.7277 7.6763 11.0931C8.04475 11.3612 8.54673 11.6343 8.92019 11.3732C9.14909 11.2126 9.23744 10.8944 9.4814 10.7578C9.61894 10.6805 9.78459 10.6745 9.94221 10.6715C10.5205 10.6574 11.153 10.6604 11.6027 11.0249C11.9632 11.317 12.2764 11.8491 12.7252 11.7306C13.0213 11.6523 13.1619 11.312 13.204 11.0088C13.2462 10.7056 13.2392 10.3763 13.4108 10.1233C13.5805 9.87233 13.8867 9.75387 14.1789 9.67355C14.8756 9.4828 15.6266 9.41755 16.237 9.03203C16.8474 8.64451 17.2399 7.76907 16.8082 7.18979Z" fill="#7FB239"/>
<path d="M18.1264 14.108C17.8945 14.0136 17.6335 14.0025 17.4036 13.9032C17.1737 13.8038 16.9689 13.5558 17.0492 13.3179C17.0863 13.2084 17.1747 13.1271 17.251 13.0398C17.6807 12.5508 17.7339 11.7728 17.3825 11.2236C17.0311 10.6755 16.3113 10.3964 15.6798 10.556C15.3355 10.6423 14.9891 10.9054 14.9841 11.2598C14.9821 11.4013 15.0343 11.5368 15.0534 11.6764C15.1377 12.3129 14.4962 12.844 13.8607 12.9333C13.2252 13.0227 12.5917 12.8139 11.9582 12.7105C11.2484 12.595 10.5185 12.6111 9.81476 12.7597C9.52662 12.8199 9.23548 12.9032 8.94333 12.8651C8.43533 12.7978 8.05484 12.3882 7.65727 12.0649C7.25971 11.7406 6.69148 11.4826 6.25275 11.7477C6.14031 12.2336 6.23067 12.7627 6.49772 13.1843C6.61518 13.3701 6.77179 13.5638 6.73665 13.7797C6.69148 14.0487 6.37323 14.1772 6.10015 14.1873C5.82708 14.1973 5.53895 14.1451 5.29097 14.2596C4.95967 14.4142 4.82514 14.884 5.02593 15.1902L5.31005 15.6892C7.03884 16.2383 8.79575 16.8015 10.2886 17.8316C10.5306 17.9993 10.8087 18.187 11.0938 18.1167C11.6239 17.9852 11.5787 17.1981 11.92 16.7704C12.2744 16.3257 12.9772 16.3749 13.4912 16.6168C14.0052 16.8598 14.454 17.2503 15.0042 17.3929C15.466 17.5123 15.9539 17.4431 16.4197 17.3437C17.2209 17.173 18.0602 16.8748 18.533 16.2062C19.0059 15.5386 18.8854 14.4182 18.1264 14.108Z" fill="#7FB239"/>
<path d="M27.8657 14.7053C27.5485 14.5055 27.165 14.4222 26.8688 14.1933C26.5716 13.9654 26.404 13.4845 26.673 13.2235C26.7363 13.1613 26.8176 13.1201 26.8839 13.0619C27.1088 12.8641 27.1098 12.4665 26.8859 12.2677C26.6249 12.0358 26.2253 12.1111 25.8799 12.1633C25.5346 12.2155 25.0958 12.1804 24.9573 11.8601C24.7997 11.4977 25.1932 11.1152 25.5797 11.0339C25.9663 10.9526 26.3819 11.0299 26.7544 10.8953C27.2162 10.7287 27.5264 10.2177 27.4611 9.73077C27.431 9.50588 27.3166 9.28 27.1158 9.17558C26.8688 9.04708 26.5696 9.1294 26.3046 9.21474C25.9713 9.32116 25.639 9.42858 25.3057 9.535C24.9714 9.64242 24.615 9.75085 24.2736 9.66551C23.7204 9.52697 23.4052 8.93966 22.9052 8.66658C22.3259 8.34934 21.6131 8.50294 20.9736 8.66357C20.3201 8.82822 19.5671 9.07921 19.3543 9.71872C19.2519 10.0259 19.1485 10.4948 18.8332 10.4165C18.7258 10.3904 18.6505 10.297 18.5792 10.2127C18.2098 9.77996 17.6696 9.4346 17.1034 9.49584C16.5372 9.55708 16.0382 10.1735 16.2551 10.6996L16.1135 10.9576C16.6627 11.3481 17.4869 11.2256 17.9728 11.6925C18.1977 11.9083 18.3082 12.2145 18.4889 12.4685C18.8091 12.9153 19.3663 13.1813 19.9155 13.1492C20.4646 13.1161 20.9857 12.7858 21.2507 12.3039C21.4154 12.0037 21.5298 11.6112 21.8591 11.5178C21.9967 11.4786 22.1432 11.5057 22.2838 11.5329C22.9343 11.6573 23.6823 11.8551 23.9463 12.4635C24.0136 12.6181 24.0427 12.7898 24.1321 12.9324C24.2043 13.0468 24.3097 13.1341 24.4142 13.2205C25.2635 13.9202 26.1118 14.62 26.9612 15.3197C27.1519 15.4774 27.3527 15.639 27.5947 15.6932C27.8366 15.7464 28.1298 15.6541 28.2211 15.4231C28.3275 15.1551 28.1117 14.8609 27.8657 14.7053Z" fill="#7FB239"/>
<path d="M21.4465 5.1106C21.3612 5.04434 21.2678 4.9831 21.2066 4.89475C21.0861 4.72006 21.1162 4.48715 21.0982 4.27632C21.057 3.79141 20.7267 3.36072 20.303 3.12077C19.8794 2.88083 19.3754 2.81658 18.8905 2.85372L18.6636 3.47115C18.3704 3.69001 17.9679 3.67495 17.6205 3.79041C17.0071 3.99421 16.6176 4.58152 16.2752 5.12967C16.1588 5.3154 16.0403 5.54932 16.1477 5.74108C16.2652 5.9519 16.5613 5.9519 16.8023 5.94688C17.1848 5.93885 17.5693 5.98905 17.9367 6.09346C18.0873 6.13663 18.2379 6.18984 18.3674 6.27819C18.5502 6.40368 18.6787 6.59142 18.8262 6.75707C19.4728 7.48292 20.5621 7.77708 21.4857 7.4759C21.6534 7.42168 21.819 7.34538 21.9385 7.21587C22.1001 7.04018 22.1543 6.78819 22.1533 6.55026C22.1523 5.99708 21.8843 5.44993 21.4465 5.1106Z" fill="#7FB239"/>
<path d="M25.0316 4.83252C24.7224 4.61467 24.3499 4.51026 23.9855 4.40986C23.7074 4.33256 23.4283 4.25626 23.1502 4.17896L23.1221 4.42693C22.8882 4.32955 22.601 4.37272 22.4063 4.53435C22.2105 4.69599 22.1151 4.97007 22.1673 5.21804C22.2075 5.4118 22.328 5.57745 22.4444 5.73808C22.5418 5.87261 22.6402 6.00614 22.7376 6.14067C23.098 6.63561 23.5417 7.17674 24.1531 7.20786C24.2887 7.21489 24.4332 7.1918 24.5376 7.10546C24.6431 7.01912 24.6923 6.85749 24.622 6.74103C24.5798 6.67176 24.5015 6.62457 24.4784 6.54626C24.4372 6.40872 24.5989 6.28925 24.7414 6.28022C24.885 6.27118 25.0296 6.32138 25.1701 6.29226C25.392 6.24608 25.5326 6.01116 25.5496 5.78427C25.5787 5.40678 25.3408 5.05038 25.0316 4.83252Z" fill="#7FB239"/>
</g>
<defs>
<clipPath id="clip0_97_533">
<rect width="32" height="32" fill="white"/>
</clipPath>
</defs>
</svg>
