<svg width="32" height="32" viewBox="0 0 32 32" fill="none" xmlns="http://www.w3.org/2000/svg">
<path d="M15.2075 30.9399C13.8051 31.0014 12.1692 31.0014 10.7666 30.9399C10.3874 30.9233 10.1135 30.5715 10.1889 30.1994L10.4116 29.1035L10.9016 25.5291H15.0727L15.5627 29.1035L15.7854 30.1994C15.8608 30.5715 15.5866 30.9233 15.2075 30.9399Z" fill="url(#paint0_linear_97_412)"/>
<path d="M15.7854 30.1994L15.5627 29.1035L15.0727 25.5291H10.9016L10.6372 27.458L14.1528 30.9736C14.5137 30.966 14.8677 30.9548 15.2075 30.9399C15.5867 30.9233 15.8608 30.5715 15.7854 30.1994Z" fill="url(#paint1_linear_97_412)"/>
<path d="M1.13036 27.4548H1.61497C2.53221 27.4548 3.41722 27.1067 4.08225 26.4748C4.3718 26.1999 4.65769 25.9194 4.93943 25.634C5.17844 25.3921 5.55857 25.7085 5.36765 25.99C5.35911 26.0027 5.35032 26.0154 5.34177 26.0278C4.92893 26.6343 5.35935 27.4548 6.09323 27.4548H6.60617C7.67453 27.4548 8.66403 26.9045 9.238 26.0037C9.28976 25.9224 9.34127 25.8403 9.3923 25.7581C9.50021 25.5842 9.76681 25.7141 9.69772 25.9065C9.69381 25.9172 9.69015 25.9277 9.68624 25.9382C9.42013 26.6772 9.97018 27.4548 10.7556 27.4548H11.0839C12.0065 27.4548 12.7824 26.7742 12.9167 25.8616C12.9633 25.5459 13.0109 25.5459 13.0573 25.8616C13.1916 26.7742 13.9677 27.4548 14.8901 27.4548H15.2209C16.0051 27.4548 16.5546 26.6782 16.2885 25.9404C16.2849 25.9299 16.2809 25.9194 16.2773 25.9087C16.2082 25.7161 16.475 25.5862 16.583 25.76C16.634 25.8418 16.685 25.9231 16.7365 26.0041C17.3105 26.9048 18.3 27.4548 19.3681 27.4548H19.881C20.6149 27.4548 21.0453 26.6343 20.6323 26.0278C20.6237 26.0151 20.6152 26.0027 20.6066 25.99C20.4157 25.7085 20.7956 25.3921 21.0348 25.634C21.3166 25.9194 21.6025 26.1999 21.8918 26.4748C22.5571 27.1067 23.4418 27.4548 24.3593 27.4548H24.8439C25.8901 27.4548 26.3722 26.1562 25.5802 25.4724C19.0178 19.8052 12.987 8.86333 12.987 3.4588C12.987 8.86333 6.95627 19.8052 0.393787 25.4724C-0.397959 26.1562 0.0839734 27.4548 1.13036 27.4548Z" fill="url(#paint2_linear_97_412)"/>
<path d="M25.5803 25.4724C21.0693 21.5769 16.8095 15.1889 14.5871 9.82056H11.387C10.364 12.2915 8.90917 14.978 7.19727 17.5386L7.23926 17.7448L7.01611 18.8051L15.6008 27.3898C16.1697 27.1889 16.509 26.5517 16.2885 25.9404C16.2849 25.9299 16.281 25.9194 16.2773 25.9086C16.2082 25.716 16.4751 25.5861 16.583 25.76C16.634 25.8417 16.685 25.9233 16.7365 26.0041C17.3105 26.9047 18.3 27.4548 19.3681 27.4548H19.8811C20.615 27.4548 21.0454 26.6342 20.6323 26.0278C20.6237 26.0153 20.6152 26.0026 20.6066 25.9899C20.4157 25.7084 20.7956 25.392 21.0349 25.6342C21.3166 25.9194 21.6025 26.1999 21.8918 26.4748C22.5571 27.1066 23.4418 27.4548 24.3593 27.4548H24.8439C25.8901 27.4548 26.3723 26.1562 25.5803 25.4724Z" fill="url(#paint3_linear_97_412)"/>
<path d="M22.3622 19.0283H21.9792C21.2538 19.0283 20.5541 18.7527 20.028 18.2534C19.799 18.0361 19.5732 17.8142 19.3505 17.5884C19.1615 17.3975 18.861 17.6475 19.0116 17.8701C19.0185 17.8801 19.0253 17.8902 19.0321 17.9002C19.3586 18.3797 19.0185 19.0283 18.4382 19.0283H18.0326C17.1879 19.0283 16.4054 18.5935 15.9521 17.8814C15.9108 17.8174 15.8705 17.7534 15.83 17.688C15.7448 17.5506 15.5339 17.6538 15.5888 17.8062C15.5912 17.8142 15.5944 17.823 15.5973 17.8311C15.8078 18.4146 15.3735 19.0283 14.7533 19.0283H14.4916C13.7626 19.0283 13.1486 18.4902 13.0424 17.7688C13.0055 17.5188 12.9682 17.5188 12.9316 17.7688C12.8254 18.4902 12.2114 19.0283 11.4824 19.0283H11.2224C10.6017 19.0283 10.1669 18.4131 10.3771 17.8291C10.3803 17.8211 10.3832 17.8123 10.3857 17.8042C10.4406 17.6519 10.2297 17.5493 10.1445 17.6868C10.1042 17.752 10.0637 17.8167 10.0226 17.8809C9.56855 18.5935 8.78608 19.0283 7.94135 19.0283H7.53584C6.95552 19.0283 6.61543 18.3797 6.94185 17.9002C6.94868 17.8902 6.95552 17.8801 6.96235 17.8701C7.11299 17.6475 6.81245 17.3975 6.62349 17.5884C6.40083 17.8142 6.175 18.0361 5.946 18.2534C5.41988 18.7527 4.72017 19.0283 3.99483 19.0283H3.61178C2.78463 19.0283 2.40328 18.0015 3.02975 17.461C7.16206 13.8914 11.0283 7.67729 12.4316 3.13604C12.6672 2.37042 12.8339 1.65191 12.9199 1.00201C12.9423 1.00079 12.9645 1.00006 12.987 1.00006C13.0095 1.00006 13.0319 1.00079 13.0541 1.00201C13.1401 1.65191 13.3068 2.37042 13.5424 3.13604C14.9457 7.67729 18.8119 13.8914 22.9445 17.461C23.5707 18.0015 23.1894 19.0283 22.3622 19.0283Z" fill="url(#paint4_linear_97_412)"/>
<path d="M21.979 19.0283H22.3623C23.1894 19.0283 23.5705 18.0014 22.9445 17.4607C19.476 14.4656 16.1958 9.60692 14.4016 5.43774L11.5054 5.59253C10.7585 7.2998 9.76733 9.11644 8.61963 10.8696L8.52978 11.1946L8.23682 11.99L15.1721 18.9253C15.5488 18.7265 15.7558 18.27 15.5976 17.8308C15.5947 17.8225 15.5915 17.8142 15.5886 17.8059C15.5339 17.6535 15.7451 17.5507 15.8303 17.6882C15.8706 17.7529 15.9111 17.8173 15.9519 17.8811C16.4055 18.5935 17.188 19.0283 18.0327 19.0283H18.4382C19.0183 19.0283 19.3589 18.3794 19.0322 17.8999C19.0254 17.8901 19.0188 17.8801 19.0119 17.8701C18.8608 17.6474 19.1613 17.3972 19.3503 17.5886C19.5732 17.8142 19.7993 18.0361 20.028 18.2534C20.5539 18.7529 21.2536 19.0283 21.979 19.0283Z" fill="url(#paint5_linear_97_412)"/>
<path d="M20.2668 12.3875H19.9689C19.4059 12.3875 18.8622 12.1741 18.4543 11.7859C18.2763 11.6175 18.101 11.4451 17.9281 11.2696C17.7814 11.1209 17.548 11.315 17.665 11.4878C17.6706 11.4961 17.6755 11.5034 17.6813 11.5115C17.9345 11.8836 17.6701 12.3872 17.2197 12.3872H16.905C16.2487 12.3872 15.6418 12.0496 15.289 11.4966C15.2573 11.4468 15.2262 11.3972 15.1945 11.3467C15.1286 11.2405 14.9643 11.3201 15.0073 11.4383C15.0092 11.4451 15.0117 11.4512 15.0141 11.4573C15.1772 11.9109 14.84 12.3872 14.3586 12.3872H14.1552C13.5893 12.3872 13.1127 11.9693 13.03 11.4095C13.0021 11.2154 12.9721 11.2154 12.9443 11.4095C12.8615 11.9693 12.3849 12.3872 11.819 12.3872H11.6169C11.135 12.3872 10.7971 11.9102 10.9606 11.4561C10.9633 11.45 10.965 11.4431 10.9675 11.4368C11.01 11.3189 10.8464 11.239 10.7802 11.3455C10.7485 11.3965 10.717 11.4468 10.6852 11.4966C10.3332 12.0496 9.72529 12.3872 9.06928 12.3872H8.75459C8.30415 12.3872 8.03975 11.8836 8.29292 11.5115C8.29853 11.5034 8.30366 11.4961 8.30928 11.4878C8.42622 11.315 8.19282 11.1209 8.04609 11.2696C7.87324 11.4451 7.69771 11.6172 7.51997 11.7859C7.11201 12.1741 6.56831 12.3875 6.00533 12.3875H5.70748C5.06563 12.3875 4.76949 11.5901 5.25533 11.1702C7.94795 8.84525 10.4948 5.07354 11.8881 1.83722C11.9279 1.74469 11.967 1.65191 12.0051 1.56061C12.0058 1.55987 12.0058 1.55987 12.0058 1.55939C12.204 1.22467 12.5693 1.00006 12.9872 1.00006C13.4052 1.00006 13.7702 1.22467 13.9687 1.55939C13.9687 1.55987 13.9687 1.55987 13.9694 1.56061C14.0073 1.65191 14.0466 1.74469 14.0864 1.83722C15.4797 5.07354 18.0265 8.84525 20.7192 11.1702C21.2047 11.5901 20.9086 12.3875 20.2668 12.3875Z" fill="url(#paint6_linear_97_412)"/>
<path d="M23.2365 30.9485C22.0949 30.9985 20.7634 30.9985 19.6218 30.9485C19.3132 30.935 19.0901 30.6484 19.1516 30.3457L19.3327 29.4536L19.7317 26.5444H23.1267L23.5256 29.4536L23.7068 30.3457C23.7683 30.6487 23.5451 30.935 23.2365 30.9485Z" fill="url(#paint7_linear_97_412)"/>
<path d="M23.7068 30.3457L23.5256 29.4536L23.1267 26.5444H19.7317L19.5164 28.1143L22.3782 30.9758C22.6716 30.9697 22.9597 30.9607 23.2366 30.9485C23.5452 30.935 23.7683 30.6487 23.7068 30.3457Z" fill="url(#paint8_linear_97_412)"/>
<path d="M11.7783 28.1118H12.1729C12.9194 28.1118 13.6397 27.8283 14.1812 27.3142C14.4168 27.0905 14.6494 26.862 14.8787 26.6298C15.0732 26.4328 15.3826 26.6904 15.2273 26.9196C15.2202 26.9299 15.2134 26.9401 15.2063 26.9504C14.8701 27.444 15.2207 28.1118 15.8179 28.1118H16.2354C17.105 28.1118 17.9104 27.664 18.3777 26.9306C18.4197 26.8645 18.4617 26.7978 18.5034 26.7307C18.5911 26.5893 18.8081 26.695 18.7519 26.8515C18.7488 26.8603 18.7456 26.8688 18.7427 26.8774C18.5259 27.4787 18.9736 28.1118 19.6128 28.1118H19.8804C20.6311 28.1118 21.2627 27.5578 21.3721 26.8149C21.4099 26.5581 21.4487 26.5581 21.4863 26.8149C21.5957 27.5578 22.2275 28.1118 22.9783 28.1118H23.2475C23.8857 28.1118 24.333 27.4797 24.1164 26.8791C24.1135 26.8706 24.1103 26.862 24.1072 26.8532C24.051 26.6965 24.268 26.5908 24.3562 26.7321C24.3974 26.7988 24.4392 26.8652 24.4812 26.9309C24.9482 27.664 25.7536 28.1118 26.623 28.1118H27.0405C27.6377 28.1118 27.9883 27.4438 27.6521 26.9501C27.645 26.9399 27.6382 26.9296 27.6311 26.9194C27.4758 26.6901 27.7849 26.4328 27.9797 26.6298C28.209 26.862 28.4416 27.0903 28.6772 27.3139C29.2187 27.8283 29.9389 28.1118 30.6855 28.1118H31.08C31.9316 28.1118 32.3239 27.0546 31.6794 26.498C26.3379 21.8852 21.4292 12.9792 21.4292 8.58008C21.4292 12.9792 16.5205 21.8852 11.179 26.498C10.5344 27.0549 10.9268 28.1118 11.7783 28.1118Z" fill="url(#paint9_linear_97_412)"/>
<path d="M31.6794 26.4983C28.0078 23.3274 24.5405 18.1279 22.7317 13.7583H20.1267C19.2942 15.7695 18.1101 17.9563 16.7166 20.0405L16.7507 20.2082L16.5688 21.0713L23.5566 28.059C24.0195 27.8955 24.2956 27.3767 24.1164 26.8791C24.1133 26.8706 24.1103 26.862 24.1072 26.8532C24.0508 26.6965 24.268 26.5905 24.3559 26.7321C24.3974 26.7988 24.4392 26.8652 24.4809 26.9309C24.948 27.664 25.7536 28.1118 26.623 28.1118H27.0405C27.6377 28.1118 27.9882 27.4438 27.6521 26.9502C27.645 26.9399 27.6379 26.9296 27.6311 26.9194C27.4756 26.6901 27.7849 26.4328 27.9795 26.6298C28.209 26.862 28.4416 27.0903 28.6772 27.3139C29.2185 27.8283 29.9387 28.1118 30.6855 28.1118H31.0798C31.9316 28.1118 32.3239 27.0549 31.6794 26.4983Z" fill="url(#paint10_linear_97_412)"/>
<path d="M29.06 21.2529H28.7483C28.1579 21.2529 27.5883 21.0288 27.1601 20.6223C26.9738 20.4455 26.79 20.2649 26.6089 20.081C26.4548 19.9255 26.2104 20.1291 26.333 20.3103C26.3384 20.3183 26.344 20.3266 26.3496 20.3347C26.6155 20.7248 26.3384 21.2529 25.8662 21.2529H25.5361C24.8486 21.2529 24.2117 20.8991 23.8425 20.3193C23.8091 20.2673 23.7763 20.215 23.7434 20.1621C23.6741 20.05 23.5024 20.1342 23.5469 20.2583C23.5491 20.2649 23.5515 20.2719 23.5539 20.2785C23.7251 20.7534 23.3718 21.2529 22.8669 21.2529H22.6538C22.0605 21.2529 21.5608 20.8151 21.4744 20.2277C21.4443 20.0244 21.4141 20.0244 21.3843 20.2277C21.2976 20.8151 20.7978 21.2529 20.2046 21.2529H19.9929C19.4878 21.2529 19.1338 20.7524 19.3049 20.2768C19.3074 20.2702 19.3101 20.2631 19.312 20.2566C19.3567 20.1325 19.1851 20.049 19.1155 20.1611C19.0828 20.2141 19.0498 20.2668 19.0164 20.3188C18.6467 20.8991 18.01 21.2529 17.3225 21.2529H16.9924C16.52 21.2529 16.2432 20.7248 16.5088 20.3347C16.5144 20.3266 16.52 20.3186 16.5256 20.3103C16.648 20.1291 16.4036 19.9257 16.2495 20.081C16.0684 20.2649 15.8848 20.4455 15.6982 20.6223C15.27 21.0288 14.7004 21.2529 14.1101 21.2529H13.7983C13.125 21.2529 12.8147 20.4172 13.3245 19.9773C16.688 17.0717 19.835 12.0137 20.977 8.31738C21.1689 7.69433 21.3047 7.10937 21.3745 6.58057C21.3928 6.57935 21.4111 6.57886 21.4292 6.57886C21.4475 6.57886 21.4656 6.57935 21.4839 6.58057C21.5537 7.10962 21.6894 7.69433 21.8813 8.31738C23.0234 12.0137 26.1704 17.0717 29.5339 19.9773C30.0437 20.4172 29.7334 21.2529 29.06 21.2529Z" fill="url(#paint11_linear_97_412)"/>
<path d="M28.7483 21.2529H29.06C29.7334 21.2529 30.0437 20.4172 29.5339 19.977C26.7107 17.539 24.0408 13.5845 22.5806 10.1909L20.2231 10.3169C19.6152 11.7065 18.8086 13.1853 17.8743 14.612L17.801 14.8767L17.5625 15.5239L23.2075 21.1692C23.5141 21.007 23.6828 20.6357 23.5539 20.2783C23.5515 20.2715 23.5491 20.2646 23.5466 20.2578C23.5022 20.134 23.6738 20.0503 23.7434 20.1621C23.7761 20.2148 23.8091 20.2673 23.8423 20.3193C24.2114 20.8989 24.8484 21.2529 25.5359 21.2529H25.8659C26.3381 21.2529 26.6152 20.7248 26.3496 20.3344C26.344 20.3264 26.3384 20.3183 26.333 20.3103C26.2102 20.1289 26.4546 19.9253 26.6084 20.081C26.7898 20.2646 26.9739 20.4453 27.1601 20.6223C27.5884 21.0288 28.1577 21.2529 28.7483 21.2529Z" fill="url(#paint12_linear_97_412)"/>
<path d="M27.3545 15.8476H27.112C26.6538 15.8476 26.2114 15.6738 25.8791 15.3581C25.7344 15.2209 25.5918 15.0805 25.4509 14.9377C25.3315 14.8169 25.1416 14.9748 25.2368 15.1155C25.2414 15.122 25.2453 15.1281 25.25 15.1347C25.456 15.4375 25.2409 15.8476 24.8742 15.8476H24.6181C24.084 15.8476 23.5898 15.5727 23.303 15.1228C23.2771 15.0823 23.2517 15.0417 23.2258 15.0007C23.1723 14.914 23.0386 14.979 23.0735 15.0752C23.0749 15.0805 23.0771 15.0857 23.0791 15.0908C23.2117 15.4599 22.9375 15.8476 22.5456 15.8476H22.3801C21.9194 15.8476 21.5315 15.5075 21.4641 15.0517C21.4414 14.8938 21.4172 14.8938 21.3943 15.0517C21.3271 15.5075 20.9392 15.8476 20.4785 15.8476H20.314C19.9216 15.8476 19.6467 15.4592 19.78 15.0898C19.782 15.0847 19.7834 15.0791 19.7854 15.074C19.8201 14.9778 19.6868 14.9131 19.6331 14.9997C19.6074 15.0412 19.5815 15.0823 19.5557 15.1228C19.269 15.5727 18.7744 15.8476 18.2405 15.8476H17.9841C17.6177 15.8476 17.4026 15.4375 17.6086 15.1347C17.613 15.1281 17.6172 15.122 17.6218 15.1155C17.717 14.9748 17.5271 14.8169 17.4077 14.9377C17.2668 15.0805 17.124 15.2209 16.9793 15.3581C16.6472 15.674 16.2046 15.8476 15.7466 15.8476H15.5042C14.9815 15.8476 14.7407 15.1985 15.136 14.8569C17.3276 12.9643 19.4006 9.89452 20.5347 7.26025C20.5671 7.18506 20.5991 7.10962 20.6299 7.03515C20.6304 7.03467 20.6304 7.03467 20.6304 7.03393C20.792 6.76172 21.0891 6.57886 21.4292 6.57886C21.7695 6.57886 22.0666 6.76172 22.2283 7.03393C22.2283 7.03467 22.2283 7.03467 22.2287 7.03515C22.2595 7.10937 22.2915 7.18481 22.324 7.26025C23.458 9.89452 25.531 12.9643 27.7226 14.8569C28.1179 15.1985 27.8769 15.8476 27.3545 15.8476Z" fill="url(#paint13_linear_97_412)"/>
<defs>
<linearGradient id="paint0_linear_97_412" x1="10.833" y1="28.2576" x2="14.5606" y2="28.2576" gradientUnits="userSpaceOnUse">
<stop stop-color="#C08552"/>
<stop offset="1" stop-color="#895738"/>
</linearGradient>
<linearGradient id="paint1_linear_97_412" x1="14.9388" y1="29.9809" x2="10.8832" y2="23.194" gradientUnits="userSpaceOnUse">
<stop stop-color="#895738" stop-opacity="0"/>
<stop offset="1" stop-color="#5E3023"/>
</linearGradient>
<linearGradient id="paint2_linear_97_412" x1="3.03414" y1="15.4569" x2="20.2576" y2="15.4569" gradientUnits="userSpaceOnUse">
<stop stop-color="#7AC943"/>
<stop offset="0.4564" stop-color="#5FC146"/>
<stop offset="1" stop-color="#39B54A"/>
</linearGradient>
<linearGradient id="paint3_linear_97_412" x1="16.8101" y1="23.3528" x2="12.7672" y2="11.9705" gradientUnits="userSpaceOnUse">
<stop stop-color="#39B54A" stop-opacity="0"/>
<stop offset="0.1072" stop-color="#2FAB48" stop-opacity="0.105882"/>
<stop offset="0.4553" stop-color="#159043" stop-opacity="0.454902"/>
<stop offset="0.7642" stop-color="#06803F" stop-opacity="0.764706"/>
<stop offset="1" stop-color="#007A3E"/>
</linearGradient>
<linearGradient id="paint4_linear_97_412" x1="5.11729" y1="10.0142" x2="18.7359" y2="10.0142" gradientUnits="userSpaceOnUse">
<stop stop-color="#7AC943"/>
<stop offset="0.4564" stop-color="#5FC146"/>
<stop offset="1" stop-color="#39B54A"/>
</linearGradient>
<linearGradient id="paint5_linear_97_412" x1="14.8715" y1="13.5815" x2="7.53215" y2="2.26148" gradientUnits="userSpaceOnUse">
<stop stop-color="#39B54A" stop-opacity="0"/>
<stop offset="0.1072" stop-color="#2FAB48" stop-opacity="0.105882"/>
<stop offset="0.4553" stop-color="#159043" stop-opacity="0.454902"/>
<stop offset="0.7642" stop-color="#06803F" stop-opacity="0.764706"/>
<stop offset="1" stop-color="#007A3E"/>
</linearGradient>
<linearGradient id="paint6_linear_97_412" x1="6.87648" y1="6.69376" x2="17.4508" y2="6.69376" gradientUnits="userSpaceOnUse">
<stop stop-color="#7AC943"/>
<stop offset="0.4564" stop-color="#5FC146"/>
<stop offset="1" stop-color="#39B54A"/>
</linearGradient>
<linearGradient id="paint7_linear_97_412" x1="19.6759" y1="28.7652" x2="22.7099" y2="28.7652" gradientUnits="userSpaceOnUse">
<stop stop-color="#C08552"/>
<stop offset="1" stop-color="#895738"/>
</linearGradient>
<linearGradient id="paint8_linear_97_412" x1="23.0177" y1="30.1679" x2="19.7167" y2="24.6437" gradientUnits="userSpaceOnUse">
<stop stop-color="#895738" stop-opacity="0"/>
<stop offset="1" stop-color="#5E3023"/>
</linearGradient>
<linearGradient id="paint9_linear_97_412" x1="13.328" y1="18.346" x2="27.347" y2="18.346" gradientUnits="userSpaceOnUse">
<stop stop-color="#7AC943"/>
<stop offset="0.4564" stop-color="#5FC146"/>
<stop offset="1" stop-color="#39B54A"/>
</linearGradient>
<linearGradient id="paint10_linear_97_412" x1="24.5409" y1="24.7729" x2="21.2502" y2="15.5083" gradientUnits="userSpaceOnUse">
<stop stop-color="#39B54A" stop-opacity="0"/>
<stop offset="0.1072" stop-color="#2FAB48" stop-opacity="0.105882"/>
<stop offset="0.4553" stop-color="#159043" stop-opacity="0.454902"/>
<stop offset="0.7642" stop-color="#06803F" stop-opacity="0.764706"/>
<stop offset="1" stop-color="#007A3E"/>
</linearGradient>
<linearGradient id="paint11_linear_97_412" x1="15.0236" y1="13.9159" x2="26.1084" y2="13.9159" gradientUnits="userSpaceOnUse">
<stop stop-color="#7AC943"/>
<stop offset="0.4564" stop-color="#5FC146"/>
<stop offset="1" stop-color="#39B54A"/>
</linearGradient>
<linearGradient id="paint12_linear_97_412" x1="22.963" y1="16.8196" x2="16.9891" y2="7.60565" gradientUnits="userSpaceOnUse">
<stop stop-color="#39B54A" stop-opacity="0"/>
<stop offset="0.1072" stop-color="#2FAB48" stop-opacity="0.105882"/>
<stop offset="0.4553" stop-color="#159043" stop-opacity="0.454902"/>
<stop offset="0.7642" stop-color="#06803F" stop-opacity="0.764706"/>
<stop offset="1" stop-color="#007A3E"/>
</linearGradient>
<linearGradient id="paint13_linear_97_412" x1="16.4555" y1="11.2133" x2="25.0624" y2="11.2133" gradientUnits="userSpaceOnUse">
<stop stop-color="#7AC943"/>
<stop offset="0.4564" stop-color="#5FC146"/>
<stop offset="1" stop-color="#39B54A"/>
</linearGradient>
</defs>
</svg>
