<svg width="32" height="32" viewBox="0 0 32 32" fill="none" xmlns="http://www.w3.org/2000/svg">
<g clip-path="url(#clip0_97_147)">
<path d="M29.8666 8.53333H2.06665V29.2H29.8666V8.53333Z" fill="#FFD15C"/>
<path d="M27.8666 14.2667H17.7333V29.2H27.8666V14.2667Z" fill="#415A6B"/>
<path d="M26.8666 15.2667H18.7333V28.2H26.8666V15.2667Z" fill="#8AD7F8"/>
<path d="M0 6.40002V9.40002C0 11.2 1.4 12.6 3.2 12.6C5 12.6 6.4 11.2 6.4 9.40002V6.40002H0Z" fill="#F05540"/>
<path d="M6.40002 6.40002V9.40002C6.40002 11.2 7.80002 12.6 9.60002 12.6C11.4 12.6 12.8 11.2 12.8 9.40002V6.40002H6.40002Z" fill="#E8EAE9"/>
<path d="M12.8 6.40002V9.40002C12.8 11.2 14.2 12.6 16 12.6C17.8 12.6 19.2 11.2 19.2 9.40002V6.40002H12.8Z" fill="#F05540"/>
<path d="M19.2 6.40002V9.40002C19.2 11.2 20.6 12.6 22.4 12.6C24.2 12.6 25.6 11.2 25.6 9.40002V6.40002H19.2Z" fill="#E8EAE9"/>
<path d="M25.6 6.40002V9.40002C25.6 11.2 27 12.6 28.8 12.6C30.6 12.6 32 11.2 32 9.40002V6.40002H25.6Z" fill="#F05540"/>
<path d="M7.8 0H2.33331L0 6.4H6.4L7.8 0Z" fill="#F3705A"/>
<path d="M13.2667 0H7.80002L6.40002 6.4H12.8L13.2667 0Z" fill="#F3F3F3"/>
<path d="M18.7334 0H13.2667L12.8 6.4H19.2L18.7334 0Z" fill="#F3705A"/>
<path d="M24.2 0H18.7333L19.2 6.4H25.6L24.2 0Z" fill="#F3F3F3"/>
<path d="M29.6666 0H24.2L25.6 6.4H32L29.6666 0Z" fill="#F3705A"/>
<path d="M32 29.2H0V32H32V29.2Z" fill="#CED6E0"/>
<path d="M20 22.6C20.4786 22.6 20.8667 22.2119 20.8667 21.7333C20.8667 21.2546 20.4786 20.8666 20 20.8666C19.5213 20.8666 19.1333 21.2546 19.1333 21.7333C19.1333 22.2119 19.5213 22.6 20 22.6Z" fill="#415A6B"/>
<path d="M15.3333 14.2667H4.06665V24.4H15.3333V14.2667Z" fill="#415A6B"/>
<path d="M14.3333 15.2667H5.06665V23.4H14.3333V15.2667Z" fill="#8AD7F8"/>
<path d="M9.93328 16.5333C9.79997 16.4 9.4666 16.4 9.33328 16.5333L6.06666 19.8C5.93335 19.9333 5.93335 20.2667 6.06666 20.4C6.19997 20.5333 6.53335 20.5333 6.66666 20.4L9.93335 17.1333C10.1333 16.9333 10.1333 16.6667 9.93328 16.5333Z" fill="#55C0EB"/>
<path d="M10.6667 18.4667C10.5334 18.3334 10.2 18.3334 10.0667 18.4667L8.00001 20.5333C7.8667 20.6666 7.8667 21 8.00001 21.1333C8.13332 21.2666 8.4667 21.2666 8.60001 21.1333L10.6667 19.0666C10.8667 18.8667 10.8667 18.6 10.6667 18.4667Z" fill="#55C0EB"/>
</g>
<defs>
<clipPath id="clip0_97_147">
<rect width="32" height="32" fill="white"/>
</clipPath>
</defs>
</svg>
