<svg width="32" height="32" viewBox="0 0 32 32" fill="none" xmlns="http://www.w3.org/2000/svg">
<g clip-path="url(#clip0_97_362)">
<path d="M29.8643 28.9937H2.13574C1.55395 28.9949 1.07104 28.5442 1.03223 27.9634L0 12.4419L16.5518 10.7866L32 12.4419L30.9651 27.9634C30.9263 28.543 30.4451 28.9934 29.8643 28.9937Z" fill="#F29C1F"/>
<path d="M28.4248 16.3425L28.2427 19.0625H3.75734L3.57521 16.3425C3.56447 16.1897 3.61793 16.0391 3.72242 15.9272C3.82716 15.8152 3.97365 15.7517 4.12697 15.7522H27.8731C28.0264 15.7517 28.1729 15.8152 28.2776 15.9272C28.3821 16.0391 28.4356 16.1897 28.4248 16.3425Z" fill="#AF8066"/>
<path d="M28.2427 19.0625L28.022 22.3728L27.8345 25.1702C27.8142 25.4597 27.573 25.6838 27.2827 25.6831H4.71729C4.427 25.6838 4.18579 25.4597 4.16553 25.1702L3.97803 22.3728L3.75732 19.0625L16 17.959L28.2427 19.0625Z" fill="#AF8066"/>
<path d="M28.2427 19.0625L28.022 22.3728H3.97803L3.75732 19.0625H28.2427Z" fill="#805333"/>
<path d="M12.6897 11.8901H19.3103V16.8557C19.3103 18.6838 17.8284 20.166 16 20.166C14.1716 20.166 12.6897 18.6838 12.6897 16.8557V11.8901Z" fill="#F0C419"/>
<path d="M17.1035 15.7522C17.1035 16.3616 16.6094 16.8557 16 16.8557C15.3906 16.8557 14.8965 16.3616 14.8965 15.7522C14.8965 15.1428 15.3906 14.6487 16 14.6487C16.6094 14.6487 17.1035 15.1428 17.1035 15.7522Z" fill="#2C2F38"/>
<path d="M16 18.5107C15.6953 18.5107 15.4482 18.2637 15.4482 17.959V16.8557C15.4482 16.551 15.6953 16.304 16 16.304C16.3047 16.304 16.5518 16.551 16.5518 16.8557V17.959C16.5518 18.2637 16.3047 18.5107 16 18.5107Z" fill="#2C2F38"/>
<path d="M9.37939 3.0625C7.41528 3.0625 6.73096 3.91211 5.51733 5.26953C4.70068 6.17969 5.17529 7.31641 4.96558 8.57983C4.90479 8.93848 3.86206 9.30811 3.86206 9.68311L2.75855 12.4419H1.11741e-06V9.13159C-0.000975445 7.52173 0.638185 5.97754 1.77661 4.83911C2.91504 3.70068 4.45923 3.06152 6.06885 3.0625H9.37939Z" fill="#F0C419"/>
<path d="M32 9.13159V12.4419H29.2415L28.1379 9.68311C28.1379 9.30811 27.647 8.93848 27.5862 8.57983C27.3765 7.31641 27.2993 6.17969 26.4827 5.26953C25.269 3.91211 24.5847 3.0625 22.6206 3.0625H25.9312C27.541 3.06152 29.085 3.70068 30.2234 4.83911C31.3618 5.97754 32.001 7.52173 32 9.13159Z" fill="#F0C419"/>
<path d="M29.2415 9.68311V12.4419H2.75854V9.68311C2.75903 9.31348 2.79028 8.94434 2.85229 8.57983L16 6.92456L29.1477 8.57983C29.2097 8.94434 29.241 9.31348 29.2415 9.68311Z" fill="#805333"/>
<path d="M27.5586 5.26954L16 5.82106L4.44141 5.26954C5.69629 3.86207 7.49365 3.05885 9.37939 3.06251H22.6206C24.5063 3.05885 26.3037 3.86207 27.5586 5.26954Z" fill="#805333"/>
<path d="M29.1477 8.57983H2.85229C3.05566 7.34741 3.60693 6.19873 4.44141 5.26953H27.5586C28.3931 6.19873 28.9443 7.34741 29.1477 8.57983Z" fill="#AF8066"/>
</g>
<defs>
<clipPath id="clip0_97_362">
<rect width="32" height="32" fill="white"/>
</clipPath>
</defs>
</svg>
