<svg width="32" height="32" viewBox="0 0 32 32" fill="none" xmlns="http://www.w3.org/2000/svg">
<g clip-path="url(#clip0_97_555)">
<path d="M20.5791 32H11.4207C11.2755 32 11.1638 31.8695 11.1882 31.7262C11.232 31.4673 11.3372 31.2262 11.4903 31.0213C11.6964 30.7457 11.9887 30.5345 12.3357 30.4315L12.4677 30.3922C13.1264 30.1972 13.5932 29.6106 13.635 28.9242L13.8301 25.7609L15.2265 3.10656C15.2342 2.98243 15.3371 2.88574 15.4614 2.88574H16.5384C16.6627 2.88574 16.7657 2.98249 16.7733 3.10662L18.3462 28.6287L18.3642 28.9242C18.4067 29.6106 18.8728 30.1972 19.5321 30.3922L19.6635 30.4315C20.2691 30.6111 20.7089 31.119 20.8117 31.7262C20.836 31.8694 20.7244 32 20.5791 32Z" fill="#BC7C63"/>
<path d="M18.3463 28.6287C17.8042 28.4298 17.4178 27.9088 17.4178 27.2978V24.5093C17.4178 25.2928 16.783 25.9271 16 25.9271C15.2171 25.9271 14.5822 25.2929 14.5822 24.5093C14.5822 25.052 14.2776 25.5233 13.8302 25.761L15.2403 2.8858H16.7598L18.3463 28.6287Z" fill="#AB695D"/>
<path d="M15.5204 2.88587C15.6522 2.88587 15.7582 2.99405 15.7557 3.12574L15.2542 28.9242C15.2407 29.6106 15.0939 30.1965 14.8859 30.3922L14.844 30.4315C14.7346 30.5345 14.6425 30.7457 14.5775 31.0213C14.526 31.2394 14.4919 31.4987 14.4799 31.7767C14.4745 31.9019 14.3702 32 14.245 32H11.4206C11.2753 32 11.1637 31.8695 11.188 31.7262C11.2319 31.4673 11.337 31.2262 11.4902 31.0213C11.6963 30.7457 11.9886 30.5345 12.3356 30.4315L12.4676 30.3922C13.1263 30.1972 13.593 29.6106 13.6355 28.9242L15.2264 3.10668C15.234 2.98255 15.337 2.8858 15.4613 2.8858H15.5204V2.88587Z" fill="#AB695D"/>
<path d="M27.3429 9.43516V20.5875C27.3429 21.3698 26.7074 22.0052 25.9245 22.0052C25.1416 22.0052 24.5067 21.3697 24.5067 20.5875V22.8712C24.5067 23.6715 23.8429 24.3173 23.0362 24.2877C22.2687 24.26 21.6712 23.6052 21.6712 22.8371V20.5875C21.6712 21.3698 21.037 22.0052 20.2534 22.0052V26.5432C20.2534 27.3261 19.6185 27.9609 18.8357 27.9609C18.0527 27.9609 17.4179 27.326 17.4179 26.5432V23.7546C17.4179 24.5382 16.783 25.1723 16.0001 25.1723C15.2173 25.1723 14.5824 24.5382 14.5824 23.7546C14.5824 24.5382 13.9475 25.1723 13.1646 25.1723C12.3811 25.1723 11.7469 24.5382 11.7469 23.7546V22.0052C10.9639 22.0052 10.3291 21.3697 10.3291 20.5875V22.8712C10.3291 23.6715 9.66531 24.3173 8.85855 24.2883C8.09042 24.26 7.49355 23.6052 7.49355 22.8365V20.5875C7.49355 21.3698 6.85873 22.0052 6.07579 22.0052C5.29285 22.0052 4.65735 21.3697 4.65735 20.5875V9.43516C4.65735 7.08572 6.56192 5.18115 8.91137 5.18115C10.0008 5.18115 10.9949 5.59065 11.7469 6.26415V4.25333C11.7467 1.90457 13.6512 0 16 0C17.1751 0 18.2381 0.476439 19.0075 1.24588C19.7775 2.01532 20.2533 3.07832 20.2533 4.25339V6.26484C21.006 5.59071 21.9989 5.18121 23.0889 5.18121C24.2634 5.18121 25.3264 5.65765 26.0971 6.42709C26.8665 7.19709 27.3429 8.26072 27.3429 9.43516Z" fill="#9BE69D"/>
<path d="M8.4835 9.43517V22.5049C8.4835 23.2743 9.09775 23.9014 9.86263 23.9214C9.59931 24.1609 9.24519 24.3026 8.85819 24.2884C8.09006 24.2601 7.49318 23.6053 7.49318 22.8365V20.5875C7.49318 21.3698 6.8583 22.0053 6.07543 22.0053C5.29248 22.0053 4.65698 21.3698 4.65698 20.5875V9.43517C4.65698 7.08572 6.56149 5.18115 8.911 5.18115C9.59925 5.18115 10.2489 5.34472 10.8239 5.63509C9.43581 6.33497 8.4835 7.77398 8.4835 9.43517Z" fill="#6FD7A3"/>
<path d="M17.9133 0.454004C16.5251 1.15388 15.5729 2.59288 15.5729 4.25344V8.86825C15.5729 10.145 14.4615 11.1238 13.1918 10.9894C13.1826 10.9884 13.1735 10.9875 13.1642 10.9866V9.43526C13.1642 8.17519 12.6163 7.04332 11.7465 6.26425V4.31388C11.7465 1.96994 13.664 -0.00424567 16.0079 0.000129328C16.6932 0.00137933 17.3406 0.164754 17.9133 0.454004Z" fill="#6FD7A3"/>
<path d="M18.8894 17.6551C18.8654 17.6551 18.8414 17.6547 18.8173 17.6538C17.7911 17.6166 16.9869 16.7674 16.9869 15.7203V13.4707C16.9869 13.204 17.2031 12.9878 17.4698 12.9878C17.7366 12.9878 17.9527 13.204 17.9527 13.4707V15.7202C17.9527 16.2362 18.3563 16.6706 18.8524 16.6886C19.1095 16.6984 19.3519 16.6053 19.5363 16.4276C19.721 16.2495 19.8227 16.0104 19.8227 15.7542V13.4707C19.8227 13.204 20.0389 12.9878 20.3056 12.9878C20.5723 12.9878 20.7884 13.204 20.7884 13.4707C20.7884 13.9861 21.2077 14.4054 21.7231 14.4054C22.2388 14.4054 22.6584 13.9861 22.6584 13.4707V11.9283C22.6584 11.6616 22.8746 11.4454 23.1413 11.4454C23.408 11.4454 23.6242 11.6616 23.6242 11.9283V13.4707C23.6242 14.5186 22.7714 15.3711 21.7231 15.3711C21.3836 15.3711 21.0646 15.2816 20.7884 15.125V15.7542C20.7884 16.2751 20.5818 16.7612 20.2065 17.1229C19.8491 17.4677 19.3837 17.6551 18.8894 17.6551Z" fill="#6FD7A3"/>
</g>
<defs>
<clipPath id="clip0_97_555">
<rect width="32" height="32" fill="white"/>
</clipPath>
</defs>
</svg>
