<svg width="32" height="32" viewBox="0 0 32 32" fill="none" xmlns="http://www.w3.org/2000/svg">
<path d="M23.2434 15.9999L13.5533 17.4486L7.08247 15.9999C7.08247 15.9999 3.86316 15.9999 3.86316 11.6217C3.86316 7.24341 7.08247 7.24341 7.08247 7.24341H23.2434V15.9999Z" fill="#AB7B64"/>
<path d="M23.2435 15.2041V16L13.9161 17.0086L7.08249 16C7.08249 16 5.53786 16 4.58881 14.5442C5.12064 14.7122 5.52176 14.7122 5.52176 14.7122H20.7317C21.3453 15.0413 22.0472 15.2273 22.7927 15.2273C22.9447 15.2273 23.0954 15.2196 23.2435 15.2041Z" fill="#9A6A53"/>
<path d="M10.6881 10.5593H3.93463C3.9855 10.2 4.06276 9.87938 4.15934 9.59351H10.6881C10.9547 9.59351 11.171 9.80984 11.171 10.0764C11.171 10.343 10.9547 10.5593 10.6881 10.5593Z" fill="#AB7B64"/>
<path d="M13.8108 13.167C13.8108 13.4335 13.5945 13.6499 13.328 13.6499H4.15934C4.06276 13.364 3.9855 13.0434 3.93463 12.6841H13.328C13.5945 12.6841 13.8108 12.9004 13.8108 13.167Z" fill="#AB7B64"/>
<path d="M15.7425 10.0764C15.7425 10.343 15.5261 10.5593 15.2596 10.5593H13.328C13.0614 10.5593 12.8451 10.343 12.8451 10.0764C12.8451 9.80984 13.0614 9.59351 13.328 9.59351H15.2596C15.5261 9.59351 15.7425 9.80984 15.7425 10.0764Z" fill="#AB7B64"/>
<path d="M19.4769 13.167C19.4769 13.4335 19.2605 13.6499 18.994 13.6499H16.4185C16.1519 13.6499 15.9356 13.4335 15.9356 13.167C15.9356 12.9004 16.1519 12.6841 16.4185 12.6841H18.994C19.2605 12.6841 19.4769 12.9004 19.4769 13.167Z" fill="#AB7B64"/>
<path d="M11.171 10.0764C11.171 10.343 10.9547 10.5593 10.6881 10.5593H3.93463C3.9855 10.2 4.06276 9.87938 4.15934 9.59351H10.6881C10.9547 9.59351 11.171 9.80984 11.171 10.0764Z" fill="#9A6A53"/>
<path d="M15.7425 10.0764C15.7425 10.343 15.5261 10.5593 15.2596 10.5593H13.328C13.0614 10.5593 12.8451 10.343 12.8451 10.0764C12.8451 9.80984 13.0614 9.59351 13.328 9.59351H15.2596C15.5261 9.59351 15.7425 9.80984 15.7425 10.0764Z" fill="#9A6A53"/>
<path d="M13.8108 13.167C13.8108 13.4335 13.5945 13.6499 13.328 13.6499H4.15934C4.06276 13.364 3.9855 13.0434 3.93463 12.6841H13.328C13.5945 12.6841 13.8108 12.9004 13.8108 13.167Z" fill="#9A6A53"/>
<path d="M20.2817 13.6499H16.4185C16.1519 13.6499 15.9356 13.4335 15.9356 13.167C15.9356 12.9004 16.1519 12.6841 16.4185 12.6841H19.6378H19.6391L20.2817 13.6499Z" fill="#9A6A53"/>
<path d="M23.2434 15.9999C25.6615 15.9999 27.6217 14.0397 27.6217 11.6217C27.6217 9.20363 25.6615 7.24341 23.2434 7.24341C20.8254 7.24341 18.8652 9.20363 18.8652 11.6217C18.8652 14.0397 20.8254 15.9999 23.2434 15.9999Z" fill="#F3D69E"/>
<path d="M27.6218 11.6217C27.6218 14.04 25.6618 16 23.2435 16C22.062 16 20.99 15.5319 20.2025 14.7708C20.8908 15.2222 21.7143 15.4849 22.5996 15.4849C25.018 15.4849 26.9779 13.5249 26.9779 11.1066C26.9779 9.86973 26.4654 8.75263 25.6406 7.95746C26.8337 8.73975 27.6218 10.0886 27.6218 11.6217Z" fill="#EFCB83"/>
<path d="M21.0392 13.1651C20.8596 13.1651 20.6872 13.0645 20.6039 12.8921C20.4115 12.4936 20.3139 12.0662 20.3139 11.6217C20.3139 10.0063 21.6281 8.69214 23.2435 8.69214C23.5102 8.69214 23.7264 8.90828 23.7264 9.17504C23.7264 9.44179 23.5102 9.65793 23.2435 9.65793C22.1607 9.65793 21.2797 10.5389 21.2797 11.6217C21.2797 11.9196 21.345 12.2057 21.4736 12.4722C21.5896 12.7123 21.4889 13.0011 21.2487 13.117C21.1811 13.1497 21.1095 13.1651 21.0392 13.1651Z" fill="#EDC472"/>
<path d="M23.2435 14.5513C22.9356 14.5513 22.632 14.5034 22.3409 14.409C22.0872 14.3268 21.9482 14.0543 22.0306 13.8007C22.1128 13.5469 22.3854 13.4078 22.6388 13.4904C22.8335 13.5535 23.037 13.5855 23.2435 13.5855C24.3262 13.5855 25.2072 12.7045 25.2072 11.6218C25.2072 11.355 25.4234 11.1389 25.6901 11.1389C25.9569 11.1389 26.173 11.355 26.173 11.6218C26.173 13.2371 24.8588 14.5513 23.2435 14.5513Z" fill="#EDC472"/>
<path d="M18.8652 24.7565H3.21932C3.21932 24.7565 0 24.8327 0 20.4163C0 15.9999 3.21932 15.9999 3.21932 15.9999H18.8652V24.7565Z" fill="#AB7B64"/>
<path d="M18.8652 23.4688V24.7565H3.21934C3.21934 24.7565 1.76228 24.7906 0.808716 23.4688H18.8652Z" fill="#9A6A53"/>
<path d="M3.40538 19.187H0.0952759C0.155799 18.8258 0.242721 18.5052 0.349602 18.2213H3.40538C3.67194 18.2213 3.88827 18.4376 3.88827 18.7041C3.88827 18.9707 3.67194 19.187 3.40538 19.187Z" fill="#AB7B64"/>
<path d="M6.5352 21.9878C6.5352 22.2544 6.31886 22.4707 6.0523 22.4707H0.301319C0.204096 22.1855 0.126189 21.8655 0.0740356 21.5049H6.0523C6.31886 21.5049 6.5352 21.7213 6.5352 21.9878Z" fill="#AB7B64"/>
<path d="M15.2274 21.9878C15.2274 22.2544 15.011 22.4707 14.7445 22.4707H11.2032C10.9367 22.4707 10.7203 22.2544 10.7203 21.9878C10.7203 21.7213 10.9367 21.5049 11.2032 21.5049H14.7445C15.011 21.5049 15.2274 21.7213 15.2274 21.9878Z" fill="#AB7B64"/>
<path d="M14.8089 19.187H7.72637C7.45981 19.187 7.24347 18.9707 7.24347 18.7041C7.24347 18.4376 7.45981 18.2213 7.72637 18.2213H14.8089C15.0754 18.2213 15.2918 18.4376 15.2918 18.7041C15.2918 18.9707 15.0754 19.187 14.8089 19.187Z" fill="#AB7B64"/>
<path d="M27.6217 15.9999H18.5768V24.7565L27.6943 24.7554L27.6217 15.9999Z" fill="#AB7B64"/>
<path d="M27.6945 24.7552L18.8652 24.7565V23.4688L27.6835 23.4675L27.6945 24.7552Z" fill="#9A6A53"/>
<path d="M27.6217 24.7565C30.0398 24.7565 32 22.7963 32 20.3782C32 17.9602 30.0398 15.9999 27.6217 15.9999C25.2037 15.9999 23.2435 17.9602 23.2435 20.3782C23.2435 22.7963 25.2037 24.7565 27.6217 24.7565Z" fill="#F3D69E"/>
<path d="M26.9078 23.2017C26.861 23.2017 26.8135 23.1949 26.7665 23.1804C25.5451 22.8071 24.6921 21.6548 24.6921 20.3783C24.6921 19.3542 25.2144 18.4211 26.0891 17.8823C26.3161 17.7424 26.6136 17.8131 26.7535 18.0402C26.8934 18.2673 26.8226 18.5647 26.5956 18.7046C26.0085 19.0662 25.6579 19.6919 25.6579 20.3782C25.6579 21.234 26.2299 22.0065 27.0488 22.2569C27.3039 22.3349 27.4474 22.6048 27.3694 22.8598C27.3058 23.0678 27.1145 23.2017 26.9078 23.2017Z" fill="#EDC472"/>
<path d="M29.1048 22.8062C28.9594 22.8062 28.8158 22.7408 28.7208 22.6165C28.5588 22.4046 28.5993 22.1015 28.8112 21.9396C29.3033 21.5636 29.5855 20.9945 29.5855 20.3782C29.5855 19.7259 29.2613 19.1172 28.7182 18.75C28.4973 18.6007 28.4393 18.3005 28.5886 18.0795C28.738 17.8587 29.0382 17.8005 29.2592 17.95C30.0682 18.4969 30.5512 19.4047 30.5512 20.3782C30.5512 21.2979 30.1307 22.1468 29.3975 22.707C29.3102 22.7739 29.2071 22.8062 29.1048 22.8062Z" fill="#EDC472"/>
<path d="M15.2918 18.7041C15.2918 18.9707 15.0754 19.187 14.8089 19.187H7.72637C7.45981 19.187 7.24347 18.9707 7.24347 18.7041C7.24347 18.4376 7.45981 18.2213 7.72637 18.2213H14.8089C15.0754 18.2213 15.2918 18.4376 15.2918 18.7041Z" fill="#9A6A53"/>
<path d="M3.88827 18.7041C3.88827 18.9707 3.67194 19.187 3.40538 19.187H0.0952759C0.155799 18.8258 0.242721 18.5052 0.349602 18.2213H3.40538C3.67194 18.2213 3.88827 18.4376 3.88827 18.7041Z" fill="#9A6A53"/>
<path d="M6.5352 21.9879C6.5352 22.2545 6.31886 22.4708 6.0523 22.4708H0.301319C0.204096 22.1856 0.126189 21.8656 0.0740356 21.505H6.0523C6.31886 21.505 6.5352 21.7213 6.5352 21.9879Z" fill="#9A6A53"/>
<path d="M15.2274 21.9879C15.2274 22.2545 15.011 22.4708 14.7445 22.4708H11.2032C10.9367 22.4708 10.7203 22.2545 10.7203 21.9879C10.7203 21.7213 10.9367 21.505 11.2032 21.505H14.7445C15.011 21.505 15.2274 21.7213 15.2274 21.9879Z" fill="#9A6A53"/>
<path d="M18.8652 24.7565C21.2833 24.7565 23.2435 22.7963 23.2435 20.3782C23.2435 17.9602 21.2833 15.9999 18.8652 15.9999C16.4472 15.9999 14.4869 17.9602 14.4869 20.3782C14.4869 22.7963 16.4472 24.7565 18.8652 24.7565Z" fill="#F3D69E"/>
<path d="M17.6044 22.9577C17.5194 22.9577 17.4335 22.9353 17.3554 22.8882C16.4796 22.3598 15.9356 21.398 15.9356 20.3783C15.9356 19.9183 16.0456 19.4595 16.2537 19.0512C16.3748 18.8138 16.6657 18.7192 16.9032 18.8404C17.1408 18.9615 17.2352 19.2523 17.1141 19.4899C16.9729 19.7668 16.9013 20.0657 16.9013 20.3784C16.9013 21.0721 17.2576 21.7013 17.8543 22.0614C18.0826 22.1992 18.1561 22.496 18.0183 22.7244C17.9276 22.8745 17.768 22.9577 17.6044 22.9577Z" fill="#EDC472"/>
<path d="M19.8168 23.1153C19.6287 23.1153 19.45 23.0048 19.372 22.8207C19.268 22.5752 19.3826 22.2917 19.6282 22.1876C20.3576 21.8786 20.8289 21.1684 20.8289 20.3782C20.8289 19.2954 19.9479 18.4144 18.8651 18.4144C18.5983 18.4144 18.3822 18.1983 18.3822 17.9315C18.3822 17.6648 18.5983 17.4486 18.8651 17.4486C20.4805 17.4486 21.7947 18.7628 21.7947 20.3782C21.7947 21.557 21.0922 22.6163 20.0049 23.0769C19.9435 23.103 19.8796 23.1153 19.8168 23.1153Z" fill="#EDC472"/>
<path d="M32 20.3782C32 22.7966 30.0401 24.7565 27.6217 24.7565C25.846 24.7565 24.3174 23.6999 23.6304 22.181C24.4262 23.2737 25.7153 23.9838 27.171 23.9838C29.5894 23.9838 31.5493 22.0239 31.5493 19.6056C31.5493 18.963 31.4109 18.3533 31.1623 17.8034C31.6897 18.5258 32 19.4156 32 20.3782Z" fill="#EFCB83"/>
<path d="M23.2435 20.3782C23.2435 20.7021 23.2081 21.0169 23.1417 21.3208C22.711 23.2859 20.9597 24.7565 18.8652 24.7565C17.0894 24.7565 15.5609 23.6999 14.8739 22.181C15.6697 23.2737 16.9587 23.9838 18.4145 23.9838C20.8329 23.9838 22.7928 22.0239 22.7928 19.6056C22.7928 18.963 22.6543 18.3533 22.4058 17.8034C22.6003 18.0687 22.7644 18.3571 22.8945 18.663C23.1192 19.1896 23.2435 19.7691 23.2435 20.3782Z" fill="#EFCB83"/>
</svg>
