<svg width="32" height="32" viewBox="0 0 32 32" fill="none" xmlns="http://www.w3.org/2000/svg">
<g clip-path="url(#clip0_304_43)">
<path d="M25.5856 19.4763V32H6.41373C3.78811 32 1.53936 30.3838 0.60998 28.0906C0.31498 27.3644 0.151855 26.57 0.151855 25.7375C0.151855 24.7225 0.393105 23.7644 0.82248 22.9163C0.994355 22.575 1.19686 22.2525 1.42686 21.9506C2.57061 20.4469 4.37811 19.4763 6.41373 19.4763H25.5856Z" fill="#9D6B6B"/>
<path d="M9.875 19.4763L9.22875 21.5444C9.22875 21.5444 8.35938 20.5169 8.255 19.4763H9.875Z" fill="#8B5E5E"/>
<path d="M22.4736 23.3424H16.4415C16.1747 23.3424 15.9586 23.1262 15.9586 22.8595C15.9586 22.5928 16.1748 22.3766 16.4415 22.3766H22.4736C22.7404 22.3766 22.9565 22.5928 22.9565 22.8595C22.9565 23.1261 22.7404 23.3424 22.4736 23.3424Z" fill="#8B5E5E"/>
<path d="M25.5858 28.0908V32H6.41368C3.78775 32 1.53918 30.3838 0.609497 28.0908H25.5858Z" fill="#8B5E5E"/>
<path d="M25.586 32C29.0445 32 31.8481 29.1964 31.8481 25.7379C31.8481 22.2794 29.0445 19.4758 25.586 19.4758C22.1275 19.4758 19.3239 22.2794 19.3239 25.7379C19.3239 29.1964 22.1275 32 25.586 32Z" fill="#EAB14D"/>
<path d="M25.586 20.4416C28.5064 20.4416 30.8823 22.8175 30.8823 25.7379C30.8823 28.6583 28.5064 31.0342 25.586 31.0342C22.6657 31.0342 20.2897 28.6583 20.2897 25.7379C20.2897 22.8175 22.6657 20.4416 25.586 20.4416ZM25.586 19.4758C22.1276 19.4758 19.324 22.2795 19.324 25.738C19.324 29.1965 22.1276 32 25.586 32C29.0445 32 31.8482 29.1964 31.8482 25.7379C31.8482 22.2794 29.0445 19.4758 25.586 19.4758Z" fill="#E49542"/>
<path d="M25.5859 29.9432C23.2672 29.9432 21.3807 28.0567 21.3807 25.738C21.3807 23.4192 23.2672 21.5328 25.5859 21.5328C25.8527 21.5328 26.0688 21.749 26.0688 22.0157C26.0688 22.2823 25.8526 22.4985 25.5859 22.4985C23.7997 22.4985 22.3465 23.9517 22.3465 25.7379C22.3465 27.5242 23.7997 28.9773 25.5859 28.9773C27.3721 28.9773 28.8254 27.5242 28.8254 25.7379C28.8254 25.4712 29.0416 25.255 29.3082 25.255C29.5749 25.255 29.7911 25.4712 29.7911 25.7379C29.7912 28.0567 27.9047 29.9432 25.5859 29.9432V29.9432Z" fill="#E49542"/>
<path d="M25.586 27.9496C25.3192 27.9496 25.1031 27.7334 25.1031 27.4667C25.1031 27.2001 25.3193 26.9839 25.586 26.9839C26.273 26.9839 26.832 26.4249 26.832 25.7379C26.832 25.0509 26.273 24.492 25.586 24.492C24.899 24.492 24.34 25.0509 24.34 25.7379C24.34 26.0046 24.1238 26.2208 23.8571 26.2208C23.5904 26.2208 23.3743 26.0046 23.3743 25.7379C23.3743 24.5184 24.3664 23.5262 25.586 23.5262C26.8055 23.5262 27.7977 24.5184 27.7977 25.7379C27.7977 26.9574 26.8055 27.9496 25.586 27.9496Z" fill="#E49542"/>
<path d="M20.5619 15.3142L20.5612 15.3149C17.6239 18.6469 13.6159 20.8495 9.22856 21.5449C8.28337 18.4383 8.37349 15.4636 8.47199 14.2042C8.50356 13.8012 8.53637 13.5739 8.53637 13.5739L14.2024 10.4589C14.2024 10.4589 14.4167 10.5555 14.7819 10.7499C15.9048 11.3454 18.4538 12.8617 20.5619 15.3142Z" fill="#ECF4FF"/>
<path d="M14.7819 10.7499C12.9173 12.2906 10.7752 13.4631 8.47205 14.2042C8.50361 13.8011 8.53642 13.5739 8.53642 13.5739L14.2024 10.4589C14.2025 10.4589 14.4169 10.5554 14.7819 10.7499Z" fill="#DDEAFB"/>
<path d="M20.5612 15.3147L20.5617 15.3145C19.9671 14.6225 19.3375 14.0052 18.7147 13.462L18.7143 13.4622C16.0086 16.2942 12.4956 18.2254 8.65461 18.9924L8.65417 18.9927C8.77917 19.8096 8.96292 20.6719 9.22861 21.5447C13.616 20.8501 17.6239 18.6468 20.5612 15.3147V15.3147Z" fill="#DDEAFB"/>
<path d="M27.5584 4.13358C27.7144 3.96533 27.8526 3.78308 27.9629 3.62408C28.1445 3.36195 28.1725 3.02345 28.0415 2.7322C27.5825 1.71451 26.9314 0.84739 26.4902 0.322765C26.2209 0.00232738 25.7679 -0.0917976 25.3937 0.0959524C23.5329 1.03058 18.0057 3.79208 16.7729 4.24926C15.285 4.80126 14.0621 3.27983 14.0621 3.27983C13.3086 3.37208 12.5115 3.62939 11.8262 3.9062C10.7922 4.32289 10.0111 4.78245 10.0111 4.78245L12.571 10.4163C13.119 10.2128 13.916 9.86195 14.8482 9.42452C18.135 7.88308 23.1067 5.2652 24.8072 4.23151C25.4317 3.8517 26.039 4.05714 26.434 4.29101C26.7997 4.50783 27.2692 4.44533 27.5584 4.13358V4.13358Z" fill="#EAB14D"/>
<path d="M28.0811 2.83683C28.0702 2.80158 28.0572 2.76639 28.0416 2.7322C27.5826 1.71451 26.9314 0.84739 26.4902 0.322765C26.221 0.00232738 25.768 -0.0917976 25.3937 0.0959524C23.533 1.03058 18.0057 3.79208 16.773 4.24926C15.2851 4.80126 14.0622 3.27983 14.0622 3.27983C12.173 3.51051 10.0112 4.78245 10.0112 4.78245L10.5142 5.88964C11.0524 5.60789 12.0237 5.13951 13.0589 4.83501C13.6925 4.64864 14.3734 4.78001 14.908 5.16776C15.4237 5.54176 16.2024 5.89901 17.0679 5.5782C18.3423 5.10545 24.0569 2.25001 25.9802 1.28414C26.3669 1.09008 26.8356 1.1877 27.1144 1.51883C27.3882 1.84464 27.7405 2.29808 28.0811 2.83683V2.83683Z" fill="#E49542"/>
<path d="M6.50162 12.7643C5.73694 11.5742 5.05712 10.3375 4.46206 9.05427C4.27156 8.64345 4.41 8.15645 4.786 7.9042C5.71637 7.28002 6.69437 6.74239 7.71987 6.29133C8.13437 6.10902 8.61975 6.25314 8.8645 6.63408C9.62912 7.82414 10.309 9.06083 10.9041 10.3441C11.0946 10.7549 10.9561 11.2419 10.5801 11.4941C9.64975 12.1183 8.67175 12.656 7.64625 13.107C7.23181 13.2893 6.74644 13.1452 6.50162 12.7643V12.7643Z" fill="#EAB14D"/>
<path d="M8.68632 7.57766C8.92651 7.4721 9.18782 7.46273 9.42319 7.53691C9.24194 7.23316 9.05576 6.93204 8.86457 6.63429C8.61976 6.25335 8.13426 6.10891 7.72001 6.29116C6.69432 6.74241 5.71663 7.27985 4.78607 7.90404C4.40982 8.15635 4.27163 8.64366 4.46207 9.05448C4.61107 9.37548 4.76551 9.69398 4.92526 10.0096C4.98876 9.77116 5.13626 9.55573 5.35413 9.40954C6.41088 8.7006 7.52182 8.08991 8.68632 7.57766V7.57766Z" fill="#E49542"/>
<path d="M14.8484 9.42456C13.9832 7.50656 12.976 5.66775 11.8264 3.90625C10.7923 4.32294 10.0112 4.7825 10.0112 4.7825L12.5712 10.4163C13.1192 10.2129 13.9161 9.862 14.8484 9.42456Z" fill="#E49542"/>
<path d="M8.53629 13.5737C7.23498 11.6545 6.10573 9.64058 5.14848 7.53221C4.98161 7.16464 5.10329 6.72952 5.43548 6.50021C6.83786 5.53227 8.32336 4.71558 9.89204 4.05027C10.2637 3.89264 10.6962 4.02308 10.9172 4.36096C12.1844 6.29896 13.2795 8.33158 14.2027 10.4586C12.4484 11.7416 10.5595 12.78 8.53629 13.5737V13.5737Z" fill="#ECF4FF"/>
<path d="M11.6074 5.45374C11.3832 5.08631 11.1533 4.72206 10.9174 4.36112C10.6962 4.02324 10.2639 3.89287 9.89205 4.05024C8.32336 4.71593 6.83811 5.53243 5.43549 6.50018C5.10336 6.72981 4.9818 7.16468 5.14855 7.53243C5.32686 7.92506 5.51105 8.31393 5.70093 8.69974C5.75636 8.49481 5.88205 8.30887 6.06724 8.18112C7.61055 7.11537 9.24561 6.21656 10.9729 5.48431C11.1802 5.39618 11.4045 5.38968 11.6074 5.45374V5.45374Z" fill="#DDEAFB"/>
<path d="M5.59652 22.4334C5.59652 22.7 5.3802 22.9163 5.11364 22.9163H0.822266C0.994203 22.5751 1.19702 22.2525 1.42683 21.9505H5.11358C5.3802 21.9506 5.59652 22.1669 5.59652 22.4334Z" fill="#8B5E5E"/>
<path d="M8.65432 25.0537H2.69857C2.43182 25.0537 2.2157 24.8375 2.2157 24.5708C2.2157 24.3041 2.43189 24.088 2.69857 24.088H8.65432C8.92107 24.088 9.1372 24.3041 9.1372 24.5708C9.1372 24.8375 8.92101 25.0537 8.65432 25.0537Z" fill="#8B5E5E"/>
<path d="M17.1806 27.1316H11.2248C10.9581 27.1316 10.7419 26.9155 10.7419 26.6488C10.7419 26.3821 10.9581 26.1659 11.2248 26.1659H17.1806C17.4473 26.1659 17.6634 26.3821 17.6634 26.6488C17.6634 26.9155 17.4473 27.1316 17.1806 27.1316Z" fill="#8B5E5E"/>
<path d="M12.2465 30.5282H7.70028C7.43353 30.5282 7.21741 30.3121 7.21741 30.0454C7.21741 29.7787 7.4336 29.5625 7.70028 29.5625H12.2465C12.5132 29.5625 12.7293 29.7787 12.7293 30.0454C12.7293 30.3121 12.5132 30.5282 12.2465 30.5282Z" fill="#9D6B6B"/>
<path d="M25.1405 16.8763L25.1473 16.7485C25.1715 16.2979 25.5404 15.9428 25.9917 15.9361L27.3797 15.9152C27.8768 15.9077 28.2763 16.3229 28.2498 16.8194L28.2328 17.1369C28.2062 17.6334 27.7647 18.0036 27.2712 17.9431L25.8933 17.7742C25.4454 17.7193 25.1164 17.3269 25.1405 16.8763Z" fill="#FFE07D"/>
<path d="M24.0539 13.443L23.996 13.3289C23.7915 12.9266 23.9335 12.4347 24.3209 12.2032L25.5125 11.4911C25.9393 11.2361 26.4929 11.3959 26.7182 11.8391L26.8622 12.1226C27.0875 12.5658 26.8902 13.1071 26.4325 13.3016L25.1548 13.8442C24.7394 14.0207 24.2583 13.8454 24.0539 13.443V13.443Z" fill="#FFE07D"/>
<path d="M21.9707 10.4969L21.8635 10.4271C21.4853 10.1809 21.3623 9.68387 21.582 9.28975L22.2579 8.07725C22.5001 7.64294 23.0593 7.50456 23.4761 7.77581L23.7425 7.94925C24.1592 8.2205 24.259 8.78794 23.9599 9.18513L23.1248 10.2939C22.8532 10.6544 22.3489 10.7431 21.9707 10.4969V10.4969Z" fill="#FFE07D"/>
<path d="M12.2487 21.5327L13.3984 19.4758H17.2838" fill="#9D6B6B"/>
</g>
<defs>
<clipPath id="clip0_304_43">
<rect width="32" height="32" fill="white"/>
</clipPath>
</defs>
</svg>
